<svg width="115" height="159" viewBox="0 0 115 159" fill="none" xmlns="http://www.w3.org/2000/svg">
<g filter="url(#filter0_f_1_2041)">
<circle cx="50.8882" cy="50.8882" r="31.8882" fill="#7ADAF9"/>
</g>
<path d="M72.0668 56.5052C72.2137 50.284 68.9806 44.8956 66.1395 39.5561C64.6699 36.9108 63.3473 34.0697 62.0246 31.4244C61.3388 30.1018 60.604 28.8281 59.7713 27.7015C59.3794 27.1626 58.8406 26.5748 58.3997 26.1829C57.8608 25.742 57.7628 25.889 57.9098 25.84C57.8118 25.84 57.5669 26.4278 57.5179 27.0646C57.4689 27.7015 57.5179 28.3383 57.6159 29.0241C57.8608 30.3467 58.3997 31.7183 59.0365 33.0899C60.2612 35.8821 61.5348 38.6743 62.7105 41.4665C63.9351 44.2587 65.0128 47.1489 66.4334 49.7942C67.4621 52.6843 69.3725 55.0847 72.1647 56.5052H72.0668ZM72.0668 56.5052C69.0786 55.5745 66.7273 53.1252 65.3067 50.382C63.6412 47.7368 62.3675 44.9445 60.947 42.2503C59.5264 39.5561 58.2527 36.7639 56.8811 34.0207C56.1953 32.6001 55.5585 31.1305 55.2156 29.465C55.0686 28.6322 54.9707 27.7505 55.0686 26.8197C55.2156 25.987 55.2156 24.9093 56.3423 23.8806C56.9301 23.3907 57.8608 23.2437 58.4977 23.4397C59.1345 23.6356 59.5753 23.9785 59.9672 24.2724C60.653 24.9093 61.1429 25.4971 61.6328 26.1829C62.6125 27.5055 63.3963 28.8771 64.0821 30.2977L67.854 38.7233C69.0296 41.5645 70.4992 44.2097 71.381 47.2469C72.2137 50.235 72.6546 53.4191 72.1158 56.4563L72.0668 56.5052Z" fill="#494444"/>
<path d="M70.7931 58.1218C67.0702 52.9783 62.9554 48.1776 58.3997 43.8669C56.0973 41.7605 53.746 39.6541 51.2967 37.7436C50.0721 36.7639 48.7984 35.8332 47.5248 34.9514C46.888 34.5105 46.2022 34.0207 45.8103 33.8737C45.4184 33.6778 45.1245 33.9717 45.2224 33.8737C45.1735 33.5798 45.3204 34.4126 45.6633 35.0984C45.9572 35.7842 46.3001 36.421 46.692 37.0088C47.4758 38.2335 48.4555 39.4091 49.5332 40.5358C51.6886 42.7402 54.1379 44.8466 56.3423 47.0999L63.1023 53.811C64.229 54.9377 65.2577 56.1624 66.4824 57.0931C67.707 58.0238 69.2746 58.3667 70.8421 58.0728L70.7931 58.1218ZM70.7931 58.1218C69.3236 58.6606 67.5111 58.5627 66.0415 57.6809C64.6209 56.7992 63.4942 55.7215 62.2206 54.7418L54.9707 48.5695C52.5703 46.5121 50.219 44.4547 47.8677 42.1524C46.741 40.9767 45.6143 39.7521 44.6836 38.3804C44.1937 37.6946 43.7529 36.9598 43.41 36.1761C43.214 35.7842 43.0671 35.4413 42.9201 34.9514C42.7732 34.5105 42.5772 33.6778 42.9691 32.894C43.8018 31.3754 45.5164 31.3265 46.5451 31.7183C47.6228 32.1592 48.2106 32.6981 48.8474 33.1389C50.17 34.0697 51.3947 35.0494 52.6683 36.0781C55.1176 38.1355 57.5669 40.2419 59.7223 42.5932C64.0821 47.2469 67.903 52.4884 70.7931 58.1708V58.1218Z" fill="#494444"/>
<path d="M69.5195 60.963C67.2172 58.6116 64.6209 56.7012 61.8287 54.9377C59.0855 53.1742 56.3423 51.3617 53.5991 49.6472C50.8069 47.9817 48.0636 46.2672 45.1735 44.8956C43.7039 44.2097 42.2343 43.5729 40.7647 43.0341C40.0299 42.7891 39.1972 42.4463 38.6583 42.3973C37.9725 42.3483 38.0215 42.4952 38.0705 42.3973C37.8745 42.7402 39.0992 44.4057 40.0789 45.4344C41.1566 46.5611 42.3323 47.5898 43.6059 48.5205C46.1532 50.431 48.9944 52.0965 51.7376 53.811C54.5298 55.4765 57.371 57.0441 60.3101 58.4647C63.1513 59.9832 66.2864 61.0609 69.5685 60.865L69.5195 60.963ZM69.5195 60.963C66.2864 61.7467 62.8084 60.816 59.7713 59.6403C56.6852 58.4157 53.697 57.0441 50.7579 55.5255C47.8187 54.007 44.9775 52.2924 42.2343 50.382C40.8627 49.4023 39.5401 48.3246 38.3154 47.0999C37.7276 46.4631 37.1398 45.8263 36.6009 45.1405C36.111 44.3567 35.3273 43.5239 35.5722 41.9074C35.7192 41.1236 36.356 40.4378 37.0908 40.1439C37.8256 39.899 38.4134 39.948 38.9522 40.0459C40.0299 40.2419 40.6667 40.5848 41.4995 40.8787C43.0671 41.4665 44.5856 42.1523 46.1042 42.9361C49.0923 44.4547 51.9335 46.1692 54.6278 48.1286C59.8203 52.0475 65.6006 55.6235 69.5195 61.0119V60.963Z" fill="#494444"/>
<path d="M68.0009 64.0491C62.4165 60.914 56.4403 58.7586 50.366 57.1421L41.1566 54.8397C39.5891 54.4968 38.0215 54.0559 36.5519 53.811C35.8171 53.6641 35.0824 53.6151 34.3476 53.5661C33.9557 53.5661 33.6618 53.5661 33.7107 53.5661C33.8577 53.5171 33.9067 53.2722 33.9067 53.3701C33.8087 53.3701 34.2006 53.86 34.8864 54.3499C35.4742 54.7907 36.1111 55.2316 36.7479 55.6235C38.0215 56.4073 39.3931 57.0931 40.8627 57.7299C43.7039 59.0036 46.79 59.8363 49.7292 61.012C55.6565 63.1184 61.7307 65.9106 68.0009 64.0491ZM68.0009 64.0491C65.1108 65.4697 61.6817 65.6166 58.4487 65.1758C55.2156 64.6859 52.1785 63.6572 49.0923 62.8244C46.0062 61.9427 42.9691 61.0609 39.932 59.8363C38.4134 59.1995 36.8948 58.5137 35.4742 57.6809C34.7394 57.24 34.0536 56.7992 33.3678 56.2603C32.829 55.7705 31.7023 55.2806 31.4574 53.6151C31.3594 52.9293 31.7513 51.8026 32.682 51.4107C33.5148 51.0678 34.0047 51.1658 34.3965 51.1658C35.2783 51.1658 36.1111 51.3127 36.9438 51.5087C38.6093 51.8516 40.0789 52.2925 41.6465 52.6843C44.7326 53.5171 47.8187 54.3009 50.8558 55.3786C56.9301 57.436 62.9554 60.0812 67.952 64.0981L68.0009 64.0491Z" fill="#494444"/>
<path d="M66.2864 67.0373C59.7713 65.5187 53.844 64.7839 48.2596 63.6082C45.4674 63.0204 42.3323 62.5795 39.4421 62.4326C37.9725 62.3836 36.5029 62.3836 35.0333 62.4816C34.2986 62.5305 33.6127 62.6285 32.878 62.7755C32.5351 62.8245 32.0942 62.9224 31.9962 62.9714C31.7513 63.1184 32.1432 62.9714 32.0942 62.5305C31.8492 62.0897 32.4861 62.8734 33.0249 63.0204C33.6127 63.2653 34.2986 63.5103 35.0333 63.7552C36.4539 64.1961 37.9235 64.6369 39.3441 64.9798C42.2343 65.7636 45.1734 66.3025 48.1616 66.7433C54.0889 67.5761 60.1632 67.6251 66.2864 66.9883V67.0373ZM66.2864 67.0373C60.4081 68.7028 54.1379 69.1437 47.9656 68.7028C44.8795 68.5068 41.7934 67.968 38.8053 67.2822C37.2867 66.9393 35.8171 66.4984 34.3475 66.0575C33.6127 65.8616 32.878 65.6167 32.0452 65.2738C31.6533 65.0778 31.2124 64.8819 30.8205 64.588C30.4287 64.294 29.8408 63.9021 29.6939 62.8245C29.5959 61.5998 30.6736 60.865 31.1634 60.767C31.7513 60.5711 32.0942 60.5711 32.4861 60.4731C33.2698 60.3262 34.0536 60.2282 34.8864 60.1792C36.4539 60.0812 38.0705 60.0323 39.638 60.1792C42.7731 60.5221 45.7613 60.914 48.8474 61.8447C55.1176 63.5593 60.9959 65.7146 66.3354 67.0862L66.2864 67.0373Z" fill="#494444"/>
<path d="M66.3844 68.3599C59.9183 69.0947 53.844 69.9764 48.0147 70.7602C45.0755 71.2011 42.2343 71.495 39.2951 71.7889C37.8745 71.9848 36.307 72.0338 35.0333 72.2787C34.3965 72.4257 33.7597 72.6216 33.3678 72.9156C33.1719 73.0135 33.1229 73.1605 33.1719 73.0625C33.1719 72.9645 33.1229 72.8666 33.2209 73.0135C34.6415 74.3362 38.2174 74.4341 40.9607 74.4341C43.8998 74.4341 46.888 74.1402 49.8761 73.7973C55.6075 72.9156 62.3186 73.2585 66.3844 68.3599ZM66.3844 68.3599C64.8658 71.0541 61.9757 72.7686 59.0855 73.7483C56.1463 74.5811 53.1092 75.022 50.121 75.6588C47.1329 76.2956 44.0958 76.5895 41.0096 76.7365C39.4421 76.7855 37.8745 76.7365 36.307 76.5405C34.7394 76.2956 33.0249 76.1486 31.3594 74.5811C30.9675 74.1892 30.5266 73.3075 30.7716 72.4257C31.0165 71.5929 31.5553 71.1521 31.9962 70.8581C32.878 70.3193 33.7107 70.0744 34.5435 69.9274C36.209 69.6335 37.6786 69.5845 39.2461 69.4865C42.3813 69.2906 45.5164 69.0947 48.6025 68.9967L66.3354 68.3599H66.3844Z" fill="#494444"/>
<path d="M66.7763 70.8582C59.9672 72.8176 53.893 75.2669 48.0146 77.1284C45.1245 78.1571 41.7934 78.8919 39.0012 80.2635C37.5806 80.9493 36.258 81.7331 35.1313 82.7128C34.5435 83.2026 34.0536 83.7415 33.6127 84.3293C33.1229 84.9171 32.829 85.603 32.9269 85.505C32.829 85.407 33.0739 85.7499 33.5148 85.6519C34.0046 85.6519 34.8374 85.26 35.5722 84.9661L40.1279 83.2516C43.165 82.076 46.1532 80.7533 49.1413 79.4797C55.1176 76.8834 60.9469 73.9933 66.7273 70.8582H66.7763ZM66.7763 70.8582C61.5348 74.875 55.8524 78.2061 50.0231 81.1942C47.0839 82.7128 44.0957 84.0354 41.0586 85.309L36.4539 87.1705C35.6702 87.4644 35.0333 87.8073 33.8577 88.0033C32.78 88.1992 31.0165 87.8073 30.5266 85.9948C30.3307 84.2313 31.3104 83.4966 31.7513 82.8108C32.3391 82.125 32.9759 81.4881 33.6127 80.9003C34.9843 79.7736 36.5029 78.8919 38.0705 78.2061C41.2546 76.8344 44.3407 76.0997 47.7207 75.2669C54.4318 73.6014 60.9959 72.4257 66.7763 70.8582Z" fill="#494444"/>
<path d="M75.4958 54.7907C74.4181 48.8144 74.663 42.6912 74.4671 36.7149C74.3201 33.7268 74.2222 30.7386 73.7323 27.8484C73.4874 26.3789 73.2424 24.9583 72.8505 23.5377C72.6546 22.8029 72.4587 22.1171 72.2137 21.7252C71.9198 21.3333 71.9198 21.4313 71.7728 21.4313C71.234 21.4313 70.9401 22.8029 70.7441 24.3214C70.5482 25.791 70.4012 27.2116 70.3522 28.6812C70.2053 31.6204 70.4012 34.5595 70.6951 37.5477C71.332 43.475 73.0465 49.2063 75.5448 54.7418L75.4958 54.7907ZM75.4958 54.7907C72.1157 49.7942 69.8134 43.9159 68.7847 37.8906C68.1969 34.9024 67.9519 31.8163 68.0009 28.6812C68.0009 27.1136 68.1479 25.5951 68.3438 24.0275C68.4418 23.2438 68.4908 22.558 68.7847 21.6272C69.0296 20.7455 69.7154 19.6188 70.8911 19.1779C72.1647 18.5901 73.8792 19.5698 74.2711 20.5005C74.81 21.4313 74.9569 22.215 75.1529 22.9498C75.5448 24.4684 75.8387 25.987 76.0346 27.5055C76.3775 30.5917 76.5245 33.6288 76.3775 36.6659C76.1816 42.7402 75.4468 48.7165 75.5448 54.7418L75.4958 54.7907Z" fill="#494444"/>
<path d="M69.2256 30.1997C67.3151 27.6525 65.9925 25.0072 63.9351 23.3417C63.4452 22.8518 62.9554 22.7539 63.1513 22.7539C63.2003 22.5089 62.8574 23.0478 62.6615 23.7826C62.2696 25.1542 62.0246 26.5748 61.7797 28.1913C61.0449 26.7707 60.751 25.1542 60.8 23.5376C60.8 22.8518 60.702 21.5782 62.2206 20.6475C63.9351 20.0596 64.8658 21.0883 65.5027 21.5292C66.7763 22.6559 67.756 24.1255 68.2949 25.5951C68.8827 27.1136 69.1766 28.6322 69.2256 30.1997Z" fill="#494444"/>
<path d="M56.9791 31.8163C55.4605 30.9345 54.0889 30.1018 52.6193 29.367C51.1497 28.6812 49.4842 27.7994 49.2883 28.3383C48.5535 28.8281 48.2106 30.2977 48.4555 31.6693C48.7005 33.0899 49.5332 34.5595 50.219 36.176C48.7984 35.1963 47.4268 34.0207 46.643 32.2082C45.9082 30.4937 45.8103 27.9464 47.8187 26.3299C48.9454 25.4481 50.6599 25.742 51.3947 26.2319C52.2274 26.7217 52.9132 27.1626 53.5991 27.7505C54.9707 28.8771 56.1463 30.1998 56.9301 31.7673L56.9791 31.8163Z" fill="#494444"/>
<path d="M46.1532 37.9396C44.9775 37.7436 43.9488 37.5477 42.9691 37.4007C41.9894 37.3027 40.8137 37.1558 40.5198 37.4007C40.4218 37.4497 40.5198 37.2538 40.4218 37.5477C40.3238 37.7926 40.4708 38.2825 40.5198 38.7723C40.7157 39.752 41.0097 40.6828 41.4505 41.8095C40.3239 41.4176 39.3931 40.5358 38.7563 39.5071C38.4134 38.9683 38.1685 38.4294 38.0705 37.5967C37.9235 36.7639 38.6093 35.4903 39.5891 35.1474C41.4015 34.6575 42.4302 35.1963 43.5079 35.6862C44.5856 36.225 45.5164 36.9598 46.1532 37.9885V37.9396Z" fill="#494444"/>
<path d="M37.9235 52.8313C36.8458 52.9293 35.7192 52.7333 34.6904 51.9985C33.6128 51.2637 32.927 49.7452 33.5148 48.1776C34.3475 46.4141 35.9641 46.2672 36.8948 46.2182C37.9725 46.1202 39.3931 46.3651 39.9809 47.4428C38.9032 47.2959 38.1684 47.6877 37.3357 48.0307C36.4539 48.4715 35.7681 48.8144 35.8171 49.0594C35.6702 49.3533 35.7191 50.0391 36.062 50.6759C36.4539 51.3617 37.2377 51.9985 37.9725 52.8313H37.9235Z" fill="#494444"/>
<path d="M35.5232 56.4563C34.9354 57.0931 34.3476 57.436 33.9557 57.7299C33.6618 58.1708 33.5638 58.3667 33.6128 58.5137C33.6128 58.7586 33.7107 59.2974 33.8087 59.7873C33.9557 60.3261 34.2006 60.865 34.6905 61.5508C33.8577 61.7957 32.976 61.5018 32.3391 60.914C31.6533 60.3261 31.2124 59.5424 31.2124 58.4157C31.2614 57.1911 32.2412 56.2113 33.1229 56.0644C34.0047 55.9664 34.7884 56.0644 35.5232 56.4563Z" fill="#494444"/>
<path d="M36.0131 65.3227C35.2783 65.9106 34.4945 66.3025 34.1026 66.7923C33.7107 67.2332 33.4658 67.7231 33.5148 67.919C33.4658 68.1149 33.6617 68.6538 34.0536 69.2416C34.4455 69.8295 34.9354 70.4173 35.5722 71.1031C34.6415 71.397 33.6617 71.1521 32.78 70.6622C31.9472 70.2213 31.0655 69.3396 31.0165 67.821C31.1635 66.3514 32.1432 65.4207 33.1719 65.1268C34.2006 64.8329 35.1313 64.9309 35.9641 65.3227H36.0131Z" fill="#494444"/>
<path d="M35.6212 75.6098C34.9844 75.8547 34.3476 76.1487 33.8087 76.5405C33.2699 76.9324 32.829 77.5203 32.682 78.2061C32.5841 78.7939 32.78 79.4307 33.0739 79.9206C33.3678 80.4104 33.8577 80.8513 34.2986 81.2432" stroke="#494444" stroke-width="2.27773" stroke-miterlimit="10"/>
<path d="M75.1039 52.8313C76.0346 54.8887 76.7694 57.0931 77.0144 59.4444C77.2593 61.6978 77.2593 64.1961 75.7897 66.6454C73.9282 68.8007 72.0668 69.7315 70.0094 70.8581C67.9519 71.8379 65.8455 72.9156 63.4942 72.9645C65.5026 71.9358 67.2171 70.5642 69.0296 69.2906C70.6952 67.968 72.7526 66.5964 73.7813 65.3227C74.761 63.9021 74.9569 61.6978 75.1529 59.5424C75.3488 57.436 75.1529 55.1826 75.1529 52.8803L75.1039 52.8313Z" fill="#494444"/>
<path d="M76.1816 64.6369C80.6393 76.8835 81.668 90.4526 79.3167 103.385C76.8674 116.513 69.2256 127.486 64.327 139.39C53.9419 163.05 54.9217 190.58 65.8945 213.995L65.6986 214.093C58.7915 203.022 55.0196 189.992 54.5788 176.815C54.0399 163.638 57.126 150.362 63.1023 138.753C66.0415 132.923 69.3236 127.339 71.9688 121.412C74.761 115.533 76.4755 109.312 77.3083 102.993C79.1697 90.3546 78.7778 77.3243 75.9367 64.6859H76.1816V64.6369Z" fill="#494444"/>
<path d="M65.2577 135.373C65.8945 131.111 66.1395 126.506 65.6496 122.196C65.2577 117.787 64.131 113.525 62.8084 109.312C61.4368 105.099 59.7713 100.936 57.6159 97.0167C55.5095 93.0488 53.1582 89.081 52.2274 84.5253L53.3541 84.7212C49.4842 93.2938 48.5535 102.993 50.7089 112.006C51.8356 116.513 53.648 120.824 56.1463 124.792C58.5466 128.76 61.9267 132.287 65.2577 135.471V135.373ZM65.3557 135.618C61.0939 133.021 57.5179 129.788 54.5298 125.82C51.5906 121.902 49.4352 117.346 48.2596 112.545C45.8103 102.944 47.3288 92.461 52.2764 84.0844L53.2072 82.4679L53.4031 84.2803C53.844 88.6401 56.0973 92.7059 58.3997 96.5268C60.751 100.348 63.1513 104.316 64.7679 108.577C66.4334 112.839 67.3151 117.444 67.5111 122.049C67.6091 126.653 67.1192 131.209 65.3067 135.618H65.3557Z" fill="#494444"/>
<path d="M56.0483 176.325C54.6767 169.712 52.3254 163.491 49.1413 157.612C47.6227 154.673 46.0062 151.734 44.3407 148.795C42.6752 145.856 40.8627 143.015 38.9032 140.271L39.589 140.124C38.5603 144.876 37.9235 149.726 37.8255 154.477C37.7276 159.229 38.2174 164.03 39.9319 168.291C43.116 177.06 52.0315 182.644 57.224 191.021L57.0281 191.168C53.746 187.543 49.9251 184.653 46.3491 181.273C42.7241 177.991 39.3441 174.023 37.4826 169.222C35.7681 164.421 35.3762 159.278 35.8661 154.33C36.356 149.383 37.7276 144.68 38.7563 139.928L38.9522 139.047L39.4421 139.781C41.4015 142.574 43.4099 145.268 45.4184 147.962C47.4758 150.656 49.3372 153.547 50.9538 156.584C53.9909 162.658 56.3423 169.418 56.1463 176.276H55.9014L56.0483 176.325Z" fill="#494444"/>
<path d="M56.6852 160.454C61.9267 159.033 66.8743 156.927 71.4789 154.232C76.0346 151.489 80.1495 148.109 83.9214 144.288C87.6933 140.467 90.9754 136.108 93.7676 131.503C96.5598 126.849 99.0091 122 101.801 117.297L102.83 118.669C85.7829 124.204 70.8911 135.03 59.6243 149.138L59.4284 148.991C68.3928 133.07 84.5582 121.363 102.34 116.905L104.74 116.317L103.32 118.277C100.185 122.685 97.2946 127.29 94.4534 131.895C91.6122 136.499 88.771 141.202 85.293 145.513C81.815 149.824 77.3573 153.302 72.4587 155.898C67.5601 158.494 62.2206 160.16 56.7342 160.699V160.454H56.6852Z" fill="#494444"/>
<path d="M79.5126 95.4981C79.2187 90.1097 80.0515 85.0641 81.5701 80.0185C83.1376 75.022 85.391 70.2703 88.4281 66.0085C91.5142 61.7957 95.2861 58.1708 99.254 54.8397C103.271 51.5577 107.533 48.6185 112.137 46.2672L114.734 44.9445L112.97 47.3449C110.08 51.3127 108.022 55.8195 106.21 60.4241C104.398 65.0778 102.879 69.8294 100.773 74.4831C96.8537 83.7905 89.7017 92.608 79.5616 95.4981H79.5126ZM79.6596 95.3022C83.9704 93.1958 87.9872 89.9137 91.0244 86.1418C94.2085 82.3699 96.4128 78.0101 98.4212 73.5034C100.332 68.9477 102.046 64.245 104.055 59.5914C106.014 54.9377 108.512 50.333 111.892 46.5121L112.725 47.5898C108.023 49.5002 103.614 52.1455 99.7929 55.5255C95.923 58.8566 92.7879 62.9224 90.0936 67.1842C87.3994 71.446 85.0481 75.9037 83.3825 80.6553C81.619 85.358 80.4924 90.4526 79.7086 95.3512L79.6596 95.3022Z" fill="#494444"/>
<path d="M63.6902 135.324C61.7307 122.881 54.7257 111.223 53.746 98.2903C55.5585 111.174 63.1513 122 66.0905 134.883L63.6902 135.324Z" fill="#494444"/>
<path d="M78.6309 92.8529C86.4687 82.7618 93.8166 72.2298 100.577 61.3059C94.5024 72.6217 87.8893 83.6435 80.6393 94.3225L78.6799 92.9019L78.6309 92.8529Z" fill="#494444"/>
<path d="M55.9994 159.082C64.327 148.648 74.2222 139.586 85.244 132.336C74.712 140.271 65.4537 149.873 57.9588 160.552L55.9994 159.082Z" fill="#494444"/>
<path d="M55.1666 184.114L39.883 150.754L57.322 182.938L55.1666 184.114Z" fill="#494444"/>
<defs>
<filter id="filter0_f_1_2041" x="0.778191" y="0.778191" width="100.22" height="100.22" filterUnits="userSpaceOnUse" color-interpolation-filters="sRGB">
<feFlood flood-opacity="0" result="BackgroundImageFix"/>
<feBlend mode="normal" in="SourceGraphic" in2="BackgroundImageFix" result="shape"/>
<feGaussianBlur stdDeviation="9.1109" result="effect1_foregroundBlur_1_2041"/>
</filter>
</defs>
</svg>
