<svg width="75" height="75" viewBox="0 0 75 75" fill="none" xmlns="http://www.w3.org/2000/svg">
<path d="M28.2291 54.1876L54.1875 37.5001L28.2291 20.8126V54.1876ZM37.5 74.5834C32.3701 74.5834 27.5493 73.61 23.0375 71.6631C18.5257 69.7162 14.601 67.074 11.2635 63.7365C7.926 60.399 5.28381 56.4744 3.33694 51.9626C1.39006 47.4508 0.416626 42.6299 0.416626 37.5001C0.416626 32.3702 1.39006 27.5494 3.33694 23.0376C5.28381 18.5258 7.926 14.6011 11.2635 11.2636C14.601 7.92612 18.5257 5.28394 23.0375 3.33706C27.5493 1.39019 32.3701 0.416748 37.5 0.416748C42.6298 0.416748 47.4506 1.39019 51.9625 3.33706C56.4743 5.28394 60.3989 7.92612 63.7364 11.2636C67.0739 14.6011 69.7161 18.5258 71.663 23.0376C73.6098 27.5494 74.5833 32.3702 74.5833 37.5001C74.5833 42.6299 73.6098 47.4508 71.663 51.9626C69.7161 56.4744 67.0739 60.399 63.7364 63.7365C60.3989 67.074 56.4743 69.7162 51.9625 71.6631C47.4506 73.61 42.6298 74.5834 37.5 74.5834Z" fill="black"/>
</svg>
