<svg width="193" height="328" viewBox="0 0 193 328" fill="none" xmlns="http://www.w3.org/2000/svg">
<path d="M131.2 49.7625C128.852 45.8995 127.025 41.6054 126.653 36.8551C126.166 32.1222 127.512 27.11 130.51 23.3116C133.326 19.4822 138.216 16.5678 143.159 17.4558C145.489 17.7455 147.88 19.1984 149.177 21.1697C150.474 23.141 152.161 23.0596 154.572 23.1026C160.211 23.1809 163.728 29.3279 163.315 34.3151C163.167 39.4964 160.49 44.2425 156.816 47.4407C153.075 50.5903 148.899 52.8096 144.122 53.7723C139.424 54.4884 134.041 53.7848 131.169 49.9431L131.2 49.7625ZM131.575 49.5295C134.297 53.1595 139.832 52.5502 143.456 50.9426C147.226 49.1369 150.974 46.8069 153.948 44.0087C156.873 41.2766 159.151 37.7637 159.558 33.8913C159.933 30.1995 158.22 25.8879 154.41 25.1204C153.441 24.9163 152.146 24.8793 150.895 24.3665C149.644 23.8536 148.716 22.764 148.052 21.8687C146.887 19.9945 145.188 18.8465 142.99 18.654C138.641 18.203 135.297 21.644 133.314 25.1705C131.216 28.7145 129.875 32.6121 129.178 36.8806C128.529 41.0831 129.064 45.75 131.526 49.5955L131.575 49.5295Z" fill="#494444"/>
<path d="M160.847 38.5018C162.179 37.2435 163.791 37.8185 165.121 38.0847C166.781 38.5937 167.929 40.3534 168.399 41.5128C168.948 42.4257 169.273 43.7832 169.95 44.3834C170.597 45.1641 171.851 46.0867 172.475 47.8677C173.492 51.4644 171.616 54.154 169.93 56.1697C168.195 58.2514 166.294 60.0068 164.344 61.8282C162.328 63.6011 160.294 65.2593 157.204 66.1407C154.211 66.89 150.912 66.3963 148.358 65.0269C143.299 62.222 140.063 57.9084 137.333 53.4588L137.575 53.1287C142.158 55.8889 146.075 59.2782 150.289 61.1566C152.363 62.0716 154.385 62.6428 156.399 62.3944C158.395 62.0314 160.811 60.9597 163.064 59.9715C165.299 58.8686 167.482 57.422 168.873 55.3927C170.281 53.478 170.303 50.5436 169.406 49.2734C169.023 48.6868 168.148 47.941 167.202 46.7368C166.058 45.387 166.029 44.0431 165.525 42.6545C165.169 41.4775 165.096 40.6094 164.255 40.0927C163.396 39.4615 162.208 38.5875 161.243 38.7932L160.913 38.5504L160.847 38.5018Z" fill="#494444"/>
<path d="M136.864 19.2359C136.363 18.2571 135.161 17.6782 134.157 17.245C133.136 16.6972 132.483 17.0312 131.404 17.2544C129.459 17.9611 125.651 19.1279 123.462 18.2304C121.67 17.6243 119.268 18.4008 117.943 20.4787C116.667 22.4905 116.659 25.1297 117.025 27.536C117.639 30.0219 118.301 32.4417 118.668 34.848C119.034 37.2542 119.533 39.7576 120.306 41.7502C121.41 45.9199 125.659 48.0276 130.738 49.4225L130.742 49.8322C128.124 50.3485 125.387 50.4725 122.657 49.4818C119.878 48.5571 117.33 46.0729 116.272 43.3617C115.099 40.6679 114.993 38.0461 114.82 35.3758C114.648 32.7055 114.541 30.0837 114.796 27.5241C115.099 24.8985 115.566 22.1893 116.838 19.7677C117.947 17.4296 120.348 14.7188 123.824 14.8338C126.696 15.2167 127.869 14.4516 130.932 14.1607C132.307 13.9511 134.426 14.3903 135.468 15.4624C136.445 16.486 137.505 17.6726 137.34 19.2806L136.93 19.2845L136.864 19.2359Z" fill="#494444"/>
<path d="M115.437 22.5021C114.565 22.166 113.521 22.6183 112.687 22.9212C111.691 23.3076 111.514 23.6863 110.998 24.5271C110.211 26.2885 107.872 28.6381 106.06 29.4419C104.217 30.4263 102.291 31.2476 102.015 33.2828C101.721 35.2035 102.807 37.3243 104.148 38.8199C107.044 41.6614 110.83 43.4291 114.635 45.3114C118.144 47.18 122.055 48.2253 126.601 48.822L126.72 49.2143C122.527 51.319 117.345 51.1709 112.836 49.2788C108.834 47.2509 104.497 44.5703 102.406 40.082C101.418 37.8291 100.791 35.6384 100.768 33.1798C100.727 30.6065 102.524 28.1636 104.117 26.6898C106.036 25.049 106.997 24.4334 108.634 22.4838C109.363 21.4934 111.223 20.6236 112.422 20.7927C113.602 20.8472 115.144 20.9639 115.927 22.2516L115.684 22.5817L115.437 22.5021Z" fill="#494444"/>
<path d="M142.08 58.0698C140.447 60.4292 138.303 62.5147 135.529 63.9341C132.822 65.402 129.367 65.8114 126.161 64.7759C122.871 63.5773 120.535 60.9436 119.393 58.0692C118.252 55.1949 118.141 52.1633 118.639 49.2736C119.811 51.9674 120.786 54.5154 122.215 56.5839C123.693 58.5863 125.413 60.2586 127.501 60.8784C129.558 61.6787 132.047 61.4751 134.485 60.9277C136.97 60.3143 139.484 59.1104 142.129 58.0038L142.08 58.0698Z" fill="#494444"/>
<path d="M131.592 49.644C136.607 46.0071 140.839 41.0825 143.967 35.447C142.156 41.6439 138.9 47.5921 134.39 52.6176L131.641 49.578L131.592 49.644Z" fill="#494444"/>
<path d="M124.807 49.7404C124.797 46.9866 123.78 43.3898 123.159 40.0843C122.652 36.7614 121.896 32.9491 123.785 29.9644C122.635 33.188 124.027 36.5518 125.138 39.6068C126.332 42.8249 127.914 45.5148 128.869 49.4728L124.758 49.8064L124.807 49.7404Z" fill="#494444"/>
<path d="M116.794 48.3237C114.085 44.3985 112.192 40.0559 111.233 35.6882C113.466 39.5686 116.383 42.9345 119.768 45.5256L116.794 48.3237Z" fill="#494444"/>
<path d="M140.927 57.4249C142.578 55.1801 143.912 55.856 144.599 55.7512L146.78 55.8292C148.076 55.8662 149.138 55.5285 150.443 54.8605C153.071 53.6393 155.532 52.0917 158.124 50.6413C155.963 52.6122 153.884 54.7463 151.476 56.6376C150.387 57.5658 148.79 58.6299 147.071 58.8919L144.797 59.3557C144.092 59.3459 143.673 60.0548 144.599 59.2101L140.878 57.4909L140.927 57.4249Z" fill="#494444"/>
<path d="M59.7678 167.637C59.9246 172.127 59.3454 176.788 57.2552 181.152C55.2797 185.498 51.6748 189.154 47.1516 191.016C42.7429 192.86 37.0235 193.029 33.2563 189.851C31.3416 188.443 30.0232 185.947 29.8545 183.687C29.7829 181.294 28.2022 180.538 26.1418 179.328C21.2948 176.374 21.3441 169.39 24.1741 165.266C26.9032 160.863 31.5819 158.098 36.3595 157.136C41.2031 156.222 45.8601 156.391 50.4975 157.97C54.9232 159.699 59.2323 162.97 59.8338 167.686L59.7678 167.637ZM59.358 167.641C58.7914 163.155 53.7054 160.94 49.7184 160.551C45.5683 160.246 41.0783 160.403 37.1688 161.292C33.2594 162.181 29.5731 164.15 27.2909 167.253C25.1057 170.224 24.4605 174.836 27.4354 177.431C28.2452 178.128 29.2181 178.742 30.0802 179.783C30.9424 180.824 31.1695 182.314 31.3266 183.345C31.4293 185.557 32.2991 187.418 34.0643 188.614C37.6122 191.122 42.2228 189.833 45.6624 187.784C49.2826 185.767 52.3222 183.017 55.0453 179.73C57.6364 176.345 59.5634 172.065 59.292 167.592L59.358 167.641Z" fill="#494444"/>
<path d="M28.3946 162.571C26.6447 163.013 25.501 161.663 24.4932 160.82C23.3009 159.537 23.1671 157.505 23.3847 156.241C23.3421 155.192 23.7715 153.778 23.5347 152.994C23.3289 152.029 22.7581 150.591 23.0516 148.671C23.9686 145.072 26.9226 143.684 29.4222 142.775C31.9217 141.867 34.5221 141.236 37.0741 140.671C39.692 140.155 42.3275 139.753 45.4327 140.511C48.4894 141.335 50.9847 143.475 52.5808 145.87C55.5613 150.809 56.2676 156.212 56.3661 161.473L55.9738 161.591C53.3894 156.943 51.7043 152.041 48.9819 148.411C47.6537 146.621 46.2459 145.077 44.3039 144.259C42.4455 143.604 39.7538 143.252 37.3088 142.98C34.7667 142.84 32.2109 142.995 29.9755 144.098C27.7712 145.02 26.3357 147.525 26.4656 149.147C26.4559 149.852 26.9083 150.897 27.0868 152.452C27.4148 154.22 26.7699 155.373 26.5211 156.818C26.2375 158.034 25.8839 158.791 26.3188 159.721C26.8198 160.7 27.4391 162.071 28.2451 162.359L28.3634 162.751L28.3946 162.571Z" fill="#494444"/>
<path d="M39.564 191.235C39.492 192.301 40.257 193.474 40.8551 194.321C41.4706 195.282 42.1756 195.292 43.2281 195.659C45.2148 196.001 49.1571 196.866 50.5687 198.82C51.7785 200.218 54.3244 200.768 56.4938 199.616C58.6147 198.531 59.9705 196.273 60.8505 193.969C61.5985 191.569 62.2144 189.072 63.0944 186.769C63.9744 184.465 64.8369 182.048 65.0955 179.898C66.2204 175.74 63.5776 171.863 59.8862 168.029L60.129 167.699C62.5954 168.496 65.0344 169.883 67.0053 172.044C68.9763 174.206 69.91 177.64 69.4786 180.578C69.1617 183.499 67.9379 185.854 66.7142 188.21C65.5564 190.614 64.2667 192.921 62.8274 195.016C61.2735 197.129 59.539 199.211 57.1928 200.741C55.0758 202.236 51.6111 203.35 48.6439 201.575C46.267 199.827 44.9231 199.856 42.1577 198.636C40.8586 198.189 39.2216 196.68 38.8799 195.208C38.5558 193.85 38.1967 192.264 39.1678 190.943L39.4979 191.186L39.564 191.235Z" fill="#494444"/>
<path d="M59.8168 199.11C60.3974 199.842 61.5296 199.963 62.4327 200.118C63.5163 200.305 63.8251 200.023 64.6894 199.54C66.2684 198.361 69.4904 197.577 71.4421 197.69C73.5084 197.785 75.5923 197.995 76.8722 196.393C78.0377 194.808 78.2127 192.495 77.7351 190.516C76.6655 186.576 74.2733 183.189 71.9782 179.669C69.8811 176.296 67.0344 173.388 63.4031 170.718L63.6459 170.387C68.1883 170.574 72.7052 173.286 75.6431 177.176C78.0877 180.907 80.5226 185.343 80.0617 190.396C79.7896 192.841 79.2533 195.092 78.0432 197.152C76.802 199.393 74.0597 200.632 71.9001 201.079C69.4453 201.511 68.282 201.571 65.897 202.463C64.8036 202.981 62.7198 202.771 61.7955 202.091C60.7565 201.429 59.5195 200.621 59.4731 199.162L59.8829 199.158L59.8168 199.11Z" fill="#494444"/>
<path d="M54.4364 154.967C56.9981 153.697 59.9424 153.013 63.0089 153.132C66.0754 153.251 69.3165 154.516 71.5865 157.101C73.8079 159.752 74.5785 163.269 74.0984 166.273C73.6359 169.392 72.284 172.061 70.3863 174.226C70.7692 171.353 71.1696 168.596 70.9659 166.106C70.7137 163.682 70.0032 161.329 68.5294 159.736C67.1041 158.077 64.8806 156.951 62.5288 156.137C60.08 155.455 57.2912 155.235 54.419 154.852L54.4364 154.967Z" fill="#494444"/>
<path d="M59.3406 167.526C53.2327 168.223 47.0393 170.281 41.5798 173.692C46.2917 169.222 52.0289 165.71 58.434 163.502L59.3406 167.526Z" fill="#494444"/>
<path d="M65.3548 170.83C63.9679 173.27 63.0994 176.802 61.9494 180.026C60.7158 183.086 59.4065 186.803 56.3242 188.504C58.9754 186.283 59.3681 182.705 59.9938 179.503C60.536 176.138 60.5227 172.974 61.7001 169.16L65.4208 170.879L65.3548 170.83Z" fill="#494444"/>
<path d="M70.6504 174.42C71.0751 179.514 71.3056 184.872 69.9418 189.77C69.8782 184.738 68.3252 179.933 66.6264 175.326L70.6504 174.42Z" fill="#494444"/>
<path d="M55.1353 156.091C52.6707 157.229 51.7737 155.959 51.0998 155.768L49.286 154.638C48.2957 153.909 47.0975 153.74 45.5555 153.624C42.7007 153.355 39.7352 153.514 36.8007 153.492C39.6304 152.827 42.5086 152.095 45.5363 151.575C46.9598 151.299 48.8281 151.249 50.44 151.824L52.611 152.607C53.1392 152.995 53.8889 152.529 52.7606 152.818L55.0868 156.157L55.1353 156.091Z" fill="#494444"/>
<path d="M70.196 155.671C89.2713 151.591 109.432 153.091 128.168 158.325C146.859 164.034 164.428 172.378 181.834 180.804C216.618 198.248 248.011 221.132 279.174 244.052L278.931 244.382C244.986 225.521 213.92 202.469 180.787 182.781C164.3 172.69 146.104 165.615 127.313 161.562C108.681 157.016 89.6282 154.702 70.2484 156.015L70.2445 155.605L70.196 155.671Z" fill="#494444"/>
<path d="M127.246 63.4379C128.197 73.9038 129.342 84.1055 130.847 94.3694C131.78 104.721 134.057 115.043 138.768 124.408C147.845 143.191 159.118 160.231 172.336 176.566L172.093 176.896C155.236 163.989 143.127 145.317 136.66 125.198C133.647 115.047 130.163 105.26 127.476 94.942C125.314 84.6022 125.016 73.8024 126.771 63.3932L127.18 63.3894L127.246 63.4379Z" fill="#494444"/>
<path d="M115.481 156.624C110.599 149.982 105.52 143.194 98.4801 138.932C90.4677 134.057 80.7362 132.902 72.7102 128.322C76.5993 135.76 81.5818 142.68 88.2678 147.699C94.9537 152.718 103.343 155.836 115.415 156.575L115.481 156.624Z" stroke="#494444" stroke-width="1.36429" stroke-miterlimit="10"/>
<path d="M113.446 156.348C105.41 152.473 97.9703 147.51 91.3913 141.654C98.4559 146.85 106.249 151.055 114.392 154.093L113.446 156.348Z" fill="#494444"/>
<path d="M128.001 161.457C121.718 161.008 115.255 160.528 109.722 163.071C103.421 165.966 98.9753 172.565 92.8905 175.72C99.3166 177.495 105.846 178.024 111.779 176.182C117.712 174.34 122.917 170.029 128.049 161.391L128.001 161.457Z" stroke="#494444" stroke-width="1.36429" stroke-miterlimit="10"/>
<path d="M128.001 161.457C121.718 161.008 115.255 160.528 109.722 163.071C103.421 165.966 98.9753 172.565 92.8905 175.72C99.3166 177.495 105.846 178.024 111.779 176.182C117.712 174.34 122.917 170.029 128.049 161.391L128.001 161.457Z" stroke="#494444" stroke-width="1.36429" stroke-miterlimit="10"/>
<path d="M126.845 162.337C121.24 165.947 114.936 168.432 108.505 169.705C114.699 167.647 120.471 164.364 125.367 160.334L126.845 162.337Z" fill="#494444"/>
<path d="M171.294 172.035C168.715 166.272 166.053 160.347 166.652 154.276C167.243 147.386 171.936 140.867 172.791 134.171C176.613 139.626 179.34 145.6 179.693 151.76C179.997 157.987 177.68 164.32 171.36 172.083L171.294 172.035Z" stroke="#494444" stroke-width="2.27382" stroke-miterlimit="10"/>
<path d="M171.294 172.035C168.715 166.272 166.053 160.347 166.652 154.276C167.243 147.386 171.936 140.867 172.791 134.171C176.613 139.626 179.34 145.6 179.693 151.76C179.997 157.987 177.68 164.32 171.36 172.083L171.294 172.035Z" stroke="#494444" stroke-width="1.36429" stroke-miterlimit="10"/>
<path d="M169.634 168.067C172.021 162.192 173.387 155.77 173.506 149.245C174.779 155.675 174.827 162.527 173.562 169.227L169.634 168.067Z" fill="#494444"/>
<path d="M132.604 101.664C138.3 99.037 144.208 96.2605 147.736 91.3262C151.863 85.7141 152.526 77.7576 156.293 72.0833C149.849 73.6518 143.875 76.3797 139.573 80.8459C135.27 85.3122 132.838 91.6624 132.604 101.664Z" stroke="#494444" stroke-width="1.36429" stroke-miterlimit="10"/>
<path d="M132.604 101.664C138.3 99.037 144.208 96.2605 147.736 91.3262C151.863 85.7141 152.526 77.7576 156.293 72.0833C149.849 73.6518 143.875 76.3797 139.573 80.8459C135.27 85.3122 132.838 91.6624 132.604 101.664Z" stroke="#494444" stroke-width="1.36429" stroke-miterlimit="10"/>
<path d="M133.068 100.479C136.285 93.8922 140.589 87.9015 145.87 82.9343C141.201 88.4531 137.703 94.7314 135.323 101.425L133.068 100.479Z" fill="#494444"/>
<path d="M220.721 204.012C213.14 196.198 205.344 188.124 202.779 178.608C199.908 167.849 204.079 156.368 201.635 145.719C211.191 152.646 219.217 160.685 223.222 170.04C227.276 179.329 227.015 189.921 220.721 204.012Z" stroke="#494444" stroke-width="2.27382" stroke-miterlimit="10"/>
<path d="M220.721 204.012C213.14 196.198 205.344 188.124 202.779 178.608C199.908 167.849 204.079 156.368 201.635 145.719C211.191 152.646 219.217 160.685 223.222 170.04C227.276 179.329 227.015 189.921 220.721 204.012Z" stroke="#494444" stroke-width="2.27382" stroke-miterlimit="10"/>
<path d="M240.913 221.101C232.967 228.584 224.809 236.218 215.276 238.667C204.499 241.424 193.049 237.072 182.366 239.287C189.424 229.828 197.661 221.948 207.034 218.057C216.407 214.167 226.967 214.609 240.913 221.101Z" stroke="#494444" stroke-width="2.27382" stroke-miterlimit="10"/>
<path d="M240.913 221.101C232.967 228.584 224.809 236.218 215.276 238.667C204.499 241.424 193.049 237.072 182.366 239.287C189.424 229.828 197.661 221.948 207.034 218.057C216.407 214.167 226.967 214.609 240.913 221.101Z" stroke="#494444" stroke-width="2.27382" stroke-miterlimit="10"/>
<path d="M209.821 200.573C179.673 195.086 147.266 198.619 119.399 212.715C132.932 204.966 147.999 199.972 163.416 197.271C178.898 194.618 194.796 194.305 210.439 196.552L209.772 200.639L209.821 200.573Z" fill="#494444"/>
<path d="M143.139 139.628C138.801 135.013 134.397 130.35 128.593 128.421C122 126.319 114.181 128.097 107.689 126.273C111.25 131.944 115.623 136.788 121.188 139.457C126.754 142.126 133.543 142.439 143.139 139.628Z" stroke="#494444" stroke-width="1.36429" stroke-miterlimit="10"/>
<path d="M143.139 139.628C138.801 135.013 134.397 130.35 128.593 128.421C122 126.319 114.181 128.097 107.689 126.273C111.25 131.944 115.623 136.788 121.188 139.457C126.754 142.126 133.543 142.439 143.139 139.628Z" stroke="#494444" stroke-width="1.36429" stroke-miterlimit="10"/>
<path d="M141.817 140.182C135.249 139.014 128.899 136.582 123.343 133.208C129.27 135.939 135.709 137.419 142.155 137.785L141.883 140.23L141.817 140.182Z" fill="#494444"/>
<path d="M139.373 129.533C138.352 125.527 137.313 121.405 134.307 118.991C130.954 116.219 125.394 115.895 121.894 113.321C122.002 117.877 123.058 122.113 125.561 125.073C128.064 128.033 132.292 129.616 139.373 129.533Z" stroke="#494444" stroke-width="1.36429" stroke-miterlimit="10"/>
<path d="M139.373 129.533C138.352 125.527 137.313 121.405 134.307 118.991C130.954 116.219 125.394 115.895 121.894 113.321C122.002 117.877 123.058 122.113 125.561 125.073C128.064 128.033 132.292 129.616 139.373 129.533Z" stroke="#494444" stroke-width="1.36429" stroke-miterlimit="10"/>
<path d="M137.175 129.341C133.432 127.097 130.273 124.061 128.092 120.525C130.957 123.547 134.518 125.759 138.235 127.068L137.223 129.275L137.175 129.341Z" fill="#494444"/>
<path d="M118.939 90.0878C115.17 88.4347 111.22 86.7505 107.491 87.6706C103.189 88.678 99.6057 92.8589 95.4535 94.078C99.1508 96.7973 103.167 98.5301 107 98.2974C110.834 98.0648 114.648 95.7833 118.939 90.0878Z" stroke="#494444" stroke-width="1.36429" stroke-miterlimit="10"/>
<path d="M118.939 90.0878C115.17 88.4347 111.22 86.7505 107.491 87.6706C103.189 88.678 99.6057 92.8589 95.4535 94.078C99.1508 96.7973 103.167 98.5301 107 98.2974C110.834 98.0648 114.648 95.7833 118.939 90.0878Z" stroke="#494444" stroke-width="1.36429" stroke-miterlimit="10"/>
<path d="M117.43 91.7248C113.396 93.3362 109.042 94 104.874 93.58C109.034 93.1804 112.971 91.701 116.279 89.5554L117.43 91.7248Z" fill="#494444"/>
<path d="M113.591 86.1545C110.89 83.0489 108.106 79.7801 107.873 75.9464C107.553 71.5399 110.476 66.8735 110.403 62.5466C114.1 65.2659 116.951 68.5832 117.871 72.3121C118.791 76.0409 117.75 80.3618 113.591 86.1545Z" stroke="#494444" stroke-width="1.36429" stroke-miterlimit="10"/>
<path d="M113.591 86.1545C110.89 83.0489 108.106 79.7801 107.873 75.9464C107.553 71.5399 110.476 66.8735 110.403 62.5466C114.1 65.2659 116.951 68.5832 117.871 72.3121C118.791 76.0409 117.75 80.3618 113.591 86.1545Z" stroke="#494444" stroke-width="1.36429" stroke-miterlimit="10"/>
<path d="M112.29 83.7736C113.402 79.9109 113.592 75.7783 112.734 71.6882C114.377 75.5414 115.041 79.8956 114.704 84.2263L112.29 83.7736Z" fill="#494444"/>
<path d="M94.5038 76.6946C95.8732 74.141 97.2737 71.4068 96.9381 68.8199C96.55 65.8893 93.9848 63.2905 93.4336 60.4434C91.3592 62.9873 89.8927 65.673 89.77 68.3297C89.6474 70.9864 90.9347 73.6627 94.5038 76.6946Z" stroke="#494444" stroke-width="1.36429" stroke-miterlimit="10"/>
<path d="M94.5038 76.6946C95.8732 74.141 97.2737 71.4068 96.9381 68.8199C96.55 65.8893 93.9848 63.2905 93.4336 60.4434C91.3592 62.9873 89.8927 65.673 89.77 68.3297C89.6474 70.9864 90.9347 73.6627 94.5038 76.6946Z" stroke="#494444" stroke-width="1.36429" stroke-miterlimit="10"/>
<path d="M93.1172 75.6749C92.434 72.7307 92.3896 69.7477 93.0191 66.9551C93.1606 69.806 94.0381 72.4861 95.3215 74.7527L93.0512 75.6263L93.1172 75.6749Z" fill="#494444"/>
<path d="M89.2488 75.6783C86.656 77.1288 84.0632 78.5792 81.5036 78.3245C78.5828 78.0076 75.9205 75.5409 72.9822 75.1095C75.4702 72.9715 78.0456 71.4065 80.716 71.234C83.3863 71.0614 86.0856 72.2328 89.2488 75.6783Z" stroke="#494444" stroke-width="1.36429" stroke-miterlimit="10"/>
<path d="M89.2488 75.6783C86.656 77.1288 84.0632 78.5792 81.5036 78.3245C78.5828 78.0076 75.9205 75.5409 72.9822 75.1095C75.4702 72.9715 78.0456 71.4065 80.716 71.234C83.3863 71.0614 86.0856 72.2328 89.2488 75.6783Z" stroke="#494444" stroke-width="1.36429" stroke-miterlimit="10"/>
<path d="M87.3396 76.6142C85.0325 75.3244 82.337 74.5629 79.4686 74.5897C82.1662 73.8268 85.1978 73.7164 88.171 74.3771L87.291 76.6803L87.3396 76.6142Z" fill="#494444"/>
<path d="M124.892 211.057C125.672 213.869 126.404 216.747 125.493 219.231C124.454 222.028 121.34 223.909 120.169 226.608C118.732 223.72 117.868 220.745 118.401 218.085C118.933 215.424 120.765 213.21 124.826 211.008L124.892 211.057Z" stroke="#494444" stroke-width="1.36429" stroke-miterlimit="10"/>
<path d="M124.892 211.057C125.672 213.869 126.404 216.747 125.493 219.231C124.454 222.028 121.34 223.909 120.169 226.608C118.732 223.72 117.868 220.745 118.401 218.085C118.933 215.424 120.765 213.21 124.826 211.008L124.892 211.057Z" stroke="#494444" stroke-width="1.36429" stroke-miterlimit="10"/>
<path d="M125.321 213.102C123.503 215.021 122.116 217.46 121.306 220.221C121.23 217.419 121.891 214.445 123.291 211.711L125.272 213.168L125.321 213.102Z" fill="#494444"/>
<path d="M144.579 204.07C145.468 207.979 146.423 211.937 145.242 215.341C143.902 219.239 139.91 221.899 138.42 225.585C136.58 221.586 135.607 217.514 136.278 213.835C136.9 210.223 139.345 207.037 144.562 203.955L144.579 204.07Z" stroke="#494444" stroke-width="1.36429" stroke-miterlimit="10"/>
<path d="M144.579 204.07C145.468 207.979 146.423 211.937 145.242 215.341C143.902 219.239 139.91 221.899 138.42 225.585C136.58 221.586 135.607 217.514 136.278 213.835C136.9 210.223 139.345 207.037 144.562 203.955L144.579 204.07Z" stroke="#494444" stroke-width="1.36429" stroke-miterlimit="10"/>
<path d="M144.915 206.657C142.598 209.531 140.843 213.022 139.961 216.85C140.073 212.964 140.986 208.956 142.837 205.332L144.915 206.657Z" fill="#494444"/>
<path d="M175.47 197.895C177.291 203.304 179.081 208.894 177.14 213.469C174.895 218.736 168.043 222.242 165.533 227.315C162.153 221.674 160.248 216.102 161.185 211.094C162.187 206.134 166.278 201.817 175.47 197.895Z" stroke="#494444" stroke-width="1.36429" stroke-miterlimit="10"/>
<path d="M175.47 197.895C177.291 203.304 179.081 208.894 177.14 213.469C174.895 218.736 168.043 222.242 165.533 227.315C162.153 221.674 160.248 216.102 161.185 211.094C162.187 206.134 166.278 201.817 175.47 197.895Z" stroke="#494444" stroke-width="1.36429" stroke-miterlimit="10"/>
<path d="M175.767 199.843C172.034 203.812 169.163 208.823 167.952 214.342C168.375 208.65 170.519 203.105 173.883 198.255L175.864 199.711L175.767 199.843Z" fill="#494444"/>
<path d="M179.982 194.804C177.997 189.479 175.815 184.008 171.417 181.688C166.327 179.064 158.786 180.741 153.616 178.364C154.546 184.846 156.631 190.449 160.579 193.658C164.527 196.867 170.386 197.615 180.048 194.853L179.982 194.804Z" stroke="#494444" stroke-width="1.36429" stroke-miterlimit="10"/>
<path d="M179.982 194.804C177.997 189.479 175.815 184.008 171.417 181.688C166.327 179.064 158.786 180.741 153.616 178.364C154.546 184.846 156.631 190.449 160.579 193.658C164.527 196.867 170.386 197.615 180.048 194.853L179.982 194.804Z" stroke="#494444" stroke-width="1.36429" stroke-miterlimit="10"/>
<path d="M178.447 195.507C172.761 193.97 167.619 191.002 163.646 186.859C168.105 190.342 173.468 192.456 178.9 193.093L178.447 195.507Z" fill="#494444"/>
<path d="M146.576 200.248C144.055 197.173 141.452 193.936 137.999 192.821C134.119 191.595 129.592 193.047 125.729 191.936C127.781 195.785 130.451 199.071 133.696 200.746C137.007 202.469 140.942 202.514 146.624 200.182L146.576 200.248Z" stroke="#494444" stroke-width="1.36429" stroke-miterlimit="10"/>
<path d="M146.576 200.248C144.055 197.173 141.452 193.936 137.999 192.821C134.119 191.595 129.592 193.047 125.729 191.936C127.781 195.785 130.451 199.071 133.696 200.746C137.007 202.469 140.942 202.514 146.624 200.182L146.576 200.248Z" stroke="#494444" stroke-width="1.36429" stroke-miterlimit="10"/>
<path d="M144.5 200.858C140.46 200.125 136.806 198.454 133.636 196.123C137.159 197.697 140.969 198.464 144.706 198.364L144.5 200.858Z" fill="#494444"/>
<path d="M125.57 208.198C123.432 205.71 121.276 203.108 118.189 202.464C114.674 201.711 110.446 203.586 106.899 203.013C108.569 206.276 110.791 208.927 113.671 210.129C116.551 211.332 120.235 210.887 125.57 208.198Z" stroke="#494444" stroke-width="1.36429" stroke-miterlimit="10"/>
<path d="M125.57 208.198C123.432 205.71 121.276 203.108 118.189 202.464C114.674 201.711 110.446 203.586 106.899 203.013C108.569 206.276 110.791 208.927 113.671 210.129C116.551 211.332 120.235 210.887 125.57 208.198Z" stroke="#494444" stroke-width="1.36429" stroke-miterlimit="10"/>
<path d="M123.89 209.099C120.33 208.821 116.829 207.772 113.976 205.979C117.248 207.063 120.61 207.196 123.818 206.707L123.907 209.214L123.89 209.099Z" fill="#494444"/>
<path d="M127.717 96.1363C122.231 89.7619 113.842 86.6439 105.47 83.6406C101.308 82.1059 97.0805 80.5227 93.2549 78.1161C89.4293 75.7094 86.169 72.3959 84.2624 68.3485C86.4953 72.2289 89.8838 75.2298 93.7716 77.2752C97.6593 79.3206 101.835 80.5601 106.124 81.7822C114.572 84.1291 123.742 86.6004 130.642 93.4041L127.668 96.2024L127.717 96.1363Z" fill="#494444"/>
</svg>
