<svg width="126" height="216" viewBox="0 0 126 216" fill="none" xmlns="http://www.w3.org/2000/svg">
<g filter="url(#filter0_f_1_2006)">
<circle cx="66.7763" cy="59.9991" r="40.9991" fill="#F28B8B"/>
</g>
<path d="M50.1937 68.9733C48.3259 67.1056 46.5493 65.1467 45.3649 62.6412C44.226 60.1357 44.1349 56.9925 45.6838 54.3959C46.4582 53.1203 47.7793 52.0726 49.2826 51.6626C50.7403 51.2526 52.2436 51.2981 53.6102 51.4804C56.3891 51.9359 58.7579 52.8014 61.309 53.1659C63.8145 53.6214 66.4111 53.8492 68.9621 53.8948C71.5132 54.0314 74.1098 53.6214 76.8886 53.8948C79.6219 54.2136 82.6285 55.4436 83.8584 58.268C84.314 59.6802 84.2229 61.0924 83.9951 62.4134C83.7218 63.689 83.2662 65.1467 82.0818 65.83C83.8584 63.9168 83.6762 60.819 82.8563 58.7235C81.7629 56.6736 79.1663 55.7169 76.7519 55.6714C74.292 55.6258 71.6498 56.0358 68.9621 56.0358C66.2744 56.0358 63.5867 55.808 60.9445 55.3981C58.3024 54.9881 55.6602 54.077 53.2914 53.6214C50.877 53.1203 48.5081 53.4848 47.1415 55.3525C45.7749 57.1747 45.5926 59.908 46.4126 62.2312C47.1415 64.6456 48.7359 66.7867 50.1937 68.9733Z" fill="#494444"/>
<path d="M48.9637 53.1659C45.0004 48.6104 40.5361 44.4194 35.7073 40.6839C40.9916 43.7816 45.9571 47.426 50.6036 51.5259L48.9637 53.1203V53.1659Z" fill="#494444"/>
<path d="M54.2024 53.0292C52.2891 45.5127 49.1003 38.224 44.7726 31.6186C49.6925 37.7684 53.6558 44.8294 56.389 52.3914L54.2024 53.0748V53.0292Z" fill="#494444"/>
<path d="M60.2156 50.7059C60.8078 46.3782 60.6712 41.8683 59.669 37.4951C61.3545 41.6406 62.3567 46.196 62.4934 50.8426L60.2156 50.7059Z" fill="#494444"/>
<path d="M67.9143 51.0248C73.5631 41.1395 82.0818 33.0308 91.9671 27.9287C82.4007 33.7141 74.702 42.2783 69.9187 52.1181L67.9143 51.0704V51.0248Z" fill="#494444"/>
<path d="M73.1076 53.8036C78.3919 49.0204 84.724 45.5583 91.4205 43.7361C84.9517 46.2871 79.2119 50.3415 74.702 55.4436L73.1076 53.8492V53.8036Z" fill="#494444"/>
<path d="M81.3985 55.2614C90.2361 49.6582 100.941 47.4716 111.009 49.0204C100.85 48.246 90.6005 51.2526 82.674 57.1747L81.3985 55.3069V55.2614Z" fill="#494444"/>
<path d="M34.0673 42.005C35.6272 42.005 36.8917 40.7201 36.8917 39.1351C36.8917 37.5501 35.6272 36.2651 34.0673 36.2651C32.5075 36.2651 31.2429 37.5501 31.2429 39.1351C31.2429 40.7201 32.5075 42.005 34.0673 42.005Z" fill="#494444"/>
<path d="M59.1223 38.4062C60.6822 38.4062 61.9467 37.1213 61.9467 35.5363C61.9467 33.9513 60.6822 32.6663 59.1223 32.6663C57.5625 32.6663 56.2979 33.9513 56.2979 35.5363C56.2979 37.1213 57.5625 38.4062 59.1223 38.4062Z" fill="#494444"/>
<path d="M93.6982 29.2953C95.2581 29.2953 96.5226 28.0104 96.5226 26.4254C96.5226 24.8403 95.2581 23.5554 93.6982 23.5554C92.1383 23.5554 90.8738 24.8403 90.8738 26.4254C90.8738 28.0104 92.1383 29.2953 93.6982 29.2953Z" fill="#494444"/>
<path d="M93.2426 46.1505C94.8025 46.1505 96.067 44.8656 96.067 43.2805C96.067 41.6955 94.8025 40.4106 93.2426 40.4106C91.6828 40.4106 90.4183 41.6955 90.4183 43.2805C90.4183 44.8656 91.6828 46.1505 93.2426 46.1505Z" fill="#494444"/>
<path d="M112.831 52.0726C114.391 52.0726 115.655 50.7876 115.655 49.2026C115.655 47.6176 114.391 46.3327 112.831 46.3327C111.271 46.3327 110.007 47.6176 110.007 49.2026C110.007 50.7876 111.271 52.0726 112.831 52.0726Z" fill="#494444"/>
<path d="M43.406 32.6663C44.9659 32.6663 46.2304 31.3814 46.2304 29.7964C46.2304 28.2114 44.9659 26.9265 43.406 26.9265C41.8462 26.9265 40.5817 28.2114 40.5817 29.7964C40.5817 31.3814 41.8462 32.6663 43.406 32.6663Z" fill="#494444"/>
<path d="M46.0938 55.3069C43.1783 56.8558 39.7161 55.3525 37.0284 54.1225C34.2951 52.8925 31.2885 51.4804 28.6464 52.2092C26.0042 52.9381 23.8176 55.2158 23.0432 57.858C22.2232 60.5457 22.7243 63.5523 23.9087 66.1945C26.232 71.6155 31.2885 75.4876 36.7551 77.9931C42.2672 80.4986 48.417 81.683 54.5213 83.0041C48.3259 82.5941 42.0394 81.8652 36.1173 79.5875C30.2408 77.3098 24.6831 73.1643 21.8587 67.1056C20.5832 64.099 20.0366 60.5457 21.1299 57.2658C22.2232 54.0314 24.8653 51.207 28.3275 50.5237C31.9263 49.8404 34.9329 51.7081 37.6206 53.1203C40.2172 54.7147 43.1327 56.3091 46.1849 55.3069H46.0938Z" fill="#494444"/>
<path d="M32.9285 51.6626C31.8352 49.886 31.8352 47.426 33.2018 45.5127C34.7962 43.8272 36.9373 43.1439 39.0783 42.7794C41.265 42.4606 43.3605 42.7794 45.3193 42.8706C47.3237 42.9617 49.3281 42.9617 51.287 42.8706C53.2914 42.7794 55.2502 42.5972 57.2546 42.3239C59.2134 42.0961 61.309 41.5495 63.5411 41.8684C65.6822 42.1872 68.1421 43.1439 68.9166 45.6494C69.1899 47.836 68.7343 50.1137 67.231 51.5715C68.3244 49.886 68.3699 47.6082 67.8688 45.9227C67.2766 44.4194 65.1811 43.645 63.4045 43.5994C61.5367 43.5994 59.6234 44.055 57.5735 44.465C55.5235 44.8294 53.4736 45.0572 51.3781 45.1938C49.2826 45.2849 47.2326 45.2394 45.1371 45.0572C43.0416 44.875 41.0827 44.5561 39.1695 44.5561C37.3017 44.6472 35.2973 45.1483 33.9307 46.3327C32.6552 47.5171 32.1996 49.7948 32.8374 51.7081L32.9285 51.6626Z" fill="#494444"/>
<path d="M57.8924 83.1863C55.3869 83.0041 52.6536 81.9108 50.2392 80.7264C47.7792 79.4964 45.5015 77.9475 43.406 76.1709C39.215 72.6177 35.7073 68.3811 32.2907 64.1901L29.3297 60.5913L33.384 63.0056C38.1217 65.83 43.9071 66.1489 49.5559 67.6522C52.4258 68.5177 54.9769 69.4744 57.7557 70.6588C60.5801 71.8432 62.8578 74.4854 63.9967 77.1731L62.0834 77.5831C62.0834 74.8043 63.45 72.1165 65.3633 70.2488C67.2766 68.3355 69.9187 67.1967 72.3787 66.6956C77.3441 65.5111 82.3551 65.3289 87.0928 64.0534L90.9194 63.0056L87.5939 65.1923C84.6329 67.1511 81.9451 69.5655 79.6219 72.2988C78.483 73.6654 77.5264 75.1687 76.433 76.672C75.3853 78.1297 74.0642 79.6331 72.2876 80.4075L71.9687 79.7242C76.6608 77.5375 81.8085 77.0364 86.8195 76.4442C91.7394 75.852 96.9781 75.2598 100.941 72.3899L102.445 71.2966L101.807 73.0732C100.759 75.9887 98.5725 78.2664 96.067 79.9519C93.5615 81.6374 90.7372 82.6852 87.8672 83.4596C85.0429 84.2341 82.1729 84.8263 79.4396 85.6007L75.0209 86.6484C73.4264 86.8307 71.6954 86.6029 70.2376 85.6918L71.6043 84.3707C72.652 86.1929 74.4742 87.6507 76.433 87.9695C78.7108 88.334 81.0341 88.5617 83.3118 88.4251C87.9128 88.1517 92.5593 87.1495 97.1604 86.0562L102.809 84.7351L98.117 88.1517C95.3837 90.1561 92.3771 91.5683 89.325 92.7983C86.2728 93.9827 83.1296 94.9849 79.8041 95.486C76.4786 96.0327 72.9253 95.7593 69.691 94.4383C66.411 93.1627 63.7233 90.2017 62.7667 86.8307L64.5433 87.3318C62.1289 89.4273 58.849 90.0195 55.9335 89.8373C52.9725 89.6551 50.1936 88.8806 47.5059 87.9695C42.1305 86.1018 37.165 83.4596 32.0174 81.3186L29.8763 80.453L32.154 80.0886C34.4773 79.7241 36.7095 80.2708 38.805 80.8175C40.9005 81.3641 42.9505 82.0474 45.0004 82.4119C47.0959 82.7308 49.237 82.9585 51.3781 83.1407C53.4736 83.323 55.7513 83.2774 57.7101 83.1863H57.8924ZM58.1201 83.1863C55.7968 83.8241 53.7469 83.6418 51.5603 83.6874C49.3737 83.6418 47.2326 83.5507 45.046 83.2774C40.7183 82.7763 36.5728 80.6808 32.564 81.3186L32.7007 80.0886C37.985 82.093 42.996 84.5985 48.2804 86.284C50.877 87.104 53.5647 87.7873 56.2068 87.8784C58.849 87.9695 61.4456 87.3318 63.2678 85.6918L64.4978 84.5529L65.0444 86.1929C65.9555 89.0173 68.0055 91.2495 70.7387 92.3428C73.472 93.4361 76.6153 93.7094 79.6219 93.1627C82.674 92.6616 85.7262 91.705 88.6417 90.5661C91.5571 89.3817 94.4271 88.0151 96.9326 86.2385L97.8892 88.334C93.1971 89.3362 88.505 90.3384 83.5851 90.5661C81.1252 90.7028 78.6197 90.4295 76.2508 90.0195C73.5176 89.4728 71.3309 87.6051 70.0554 85.2818L68.1877 81.8652L71.4676 83.9152C72.4698 84.5529 73.7909 84.7807 75.0664 84.6896L79.1663 83.8241C82.0362 83.0952 84.9062 82.5941 87.685 81.9108C90.4638 81.2275 93.1516 80.3164 95.5204 78.8131C97.8892 77.3553 99.8936 75.2143 100.896 72.6632L101.761 73.301C99.6203 74.8954 97.1148 75.7154 94.6093 76.262C92.1038 76.8087 89.5528 77.082 87.0473 77.3098C82.0363 77.7653 76.9341 78.1753 72.4698 80.4075L72.1509 79.7242C75.3397 78.2664 76.7064 74.5309 79.0752 71.7521C81.3074 68.8822 83.9951 66.2856 87.0017 64.1445L87.5483 65.2834C82.674 66.7867 77.6175 67.1511 72.9253 68.4266C70.5565 69.0188 68.461 70.0211 66.821 71.6155C65.1811 73.2099 64.1789 75.3965 64.1789 77.5831V81.9563L62.2656 77.9931C61.0812 75.4876 59.3957 73.5287 56.9357 72.3899C54.4758 71.2966 51.6514 70.2033 49.1003 69.3833C43.816 67.8344 37.7573 67.5611 32.564 64.2812L33.6118 63.0968C36.9373 67.3789 40.2172 71.661 44.1804 75.2598C46.1393 77.082 48.2803 78.722 50.6036 80.043C52.9725 81.4097 55.3413 82.3208 58.1657 83.0952L58.1201 83.1863Z" fill="#494444"/>
<path d="M56.2524 53.2114C57.4823 52.0726 58.8034 51.1159 60.3523 50.3871C61.9011 49.6582 63.7689 49.3393 65.591 49.6582C68.9621 50.2959 72.1509 52.3003 73.6997 55.3069C70.8754 53.6214 68.0965 52.437 65.1811 51.8904C62.4478 51.2981 59.5323 52.4826 56.2524 53.1659V53.2114Z" fill="#494444"/>
<path d="M67.2766 43.1894C68.3699 41.595 70.3743 40.775 72.3331 40.6384C74.3375 40.5017 76.3419 41.0939 78.1186 41.9595C81.6718 43.645 84.4051 46.4238 87.5939 47.836C90.6916 49.3393 94.6093 49.2026 98.2992 51.0248C102.08 52.7559 104.13 57.2658 103.037 60.9557C103.128 57.1747 100.805 53.7581 97.5703 52.6192C94.336 51.3892 90.4183 51.617 86.6373 49.9315C82.9473 48.2004 80.3507 45.376 77.2986 43.5539C74.3831 41.6861 70.3287 40.8662 67.2766 43.2805V43.1894Z" fill="#494444"/>
<path d="M82.4918 58.4047C83.6307 56.9925 85.7262 56.7191 87.4572 57.038C89.2339 57.4025 90.8283 58.268 92.4227 58.8602C95.566 60.0902 99.0281 59.9535 102.581 59.9991C106.089 59.9991 110.007 60.7279 113.013 63.279C114.517 64.5545 115.564 66.4678 115.792 68.4722C116.02 70.4766 115.564 72.4354 114.699 74.1665C112.831 77.6287 109.733 79.8608 106.636 81.6375C103.447 83.3685 100.03 84.5985 96.5226 85.2363C89.4616 86.6029 82.4007 86.1929 75.4308 85.5552C82.4007 85.2818 89.4616 85.1907 96.1582 83.5508C99.4836 82.6852 102.718 81.5919 105.634 79.8608C108.503 78.1753 111.282 75.9887 112.694 73.1643C114.198 70.4311 114.016 66.8778 111.647 64.8278C109.323 62.6868 105.861 62.0035 102.49 61.7301C99.0737 61.4568 95.3382 61.4113 92.0127 59.8624C90.4183 59.088 88.9605 58.0858 87.3206 57.6302C85.7262 57.1747 83.8129 57.1747 82.4918 58.4047Z" fill="#494444"/>
<path d="M64.1789 87.1496C54.5213 110.018 46.1393 137.168 46.0937 161.996C46.0482 186.823 54.0658 212.425 71.6498 229.963" stroke="#494444" stroke-width="2.27773" stroke-miterlimit="10"/>
<path d="M45.046 174.705C45.6382 167.736 42.9049 160.538 37.7573 155.8C33.384 151.7 27.5075 149.423 23.1798 145.323C22.7243 149.787 22.3143 154.297 22.8154 158.761C23.3165 163.226 24.8198 167.69 27.8719 171.015C32.4729 176.026 39.6705 177.621 45.046 174.751V174.705Z" stroke="#494444" stroke-width="2.27773" stroke-miterlimit="10"/>
<path d="M32.9285 120.359C34.4773 114.619 34.7507 108.424 33.1562 102.684C31.5618 96.9438 28.1452 91.6139 23.2709 88.2429C17.1666 84.0063 8.92124 82.6397 4.50245 76.672C8.0557 86.4207 0.493651 97.5815 3.91024 107.376C5.73242 112.615 10.5156 116.441 15.7089 118.446C20.9021 120.45 26.5508 120.905 32.974 120.359H32.9285Z" stroke="#494444" stroke-width="2.27773" stroke-miterlimit="10"/>
<path d="M73.3354 163.909C72.6976 161.54 72.1054 159.126 72.1965 156.711C72.2876 154.297 73.1076 151.746 74.8842 150.106C76.8431 148.238 79.6674 147.646 82.3551 147.327C86.3184 146.917 90.3272 147.054 94.2449 146.416C98.1626 145.778 102.126 144.229 104.631 141.132C103.811 146.052 102.581 151.017 100.167 155.39C97.7526 159.763 94.1082 163.59 89.4617 165.503C84.8151 167.417 79.1663 167.098 73.3809 163.954L73.3354 163.909Z" stroke="#494444" stroke-width="2.27773" stroke-miterlimit="10"/>
<path d="M58.1657 200.808C57.0268 195.023 59.8967 188.964 64.4066 185.137C68.9165 181.311 74.8386 179.625 80.7152 179.079C83.8129 178.805 87.0017 178.851 90.0083 178.031C93.0149 177.211 95.4293 174.888 97.1148 172.473C95.2926 177.484 92.5593 183.178 89.2794 187.962C85.9995 192.745 81.5351 196.89 76.1141 198.94C70.9209 200.854 65.1355 200.671 58.2112 200.808H58.1657Z" stroke="#494444" stroke-width="2.27773" stroke-miterlimit="10"/>
<path d="M79.1207 147.828C79.5763 145.004 78.2097 140.494 76.2964 138.353C74.3831 136.212 71.9231 134.617 69.7821 132.704C67.641 130.791 67.0943 129.515 65.2722 125.552C65.6822 134.39 59.4412 142.772 60.6712 151.564C61.5367 157.896 66.6388 163.362 72.8798 164.729" stroke="#494444" stroke-width="2.27773" stroke-miterlimit="10"/>
<path d="M47.5514 143.091C44.3171 134.663 39.1694 126.919 32.6551 120.678" stroke="#494444" stroke-width="2.27773" stroke-miterlimit="10"/>
<path d="M57.5734 210.693C55.1591 202.721 56.389 193.975 59.4412 186.231C62.4933 178.486 67.7777 170.104 72.5609 163.271" stroke="#494444" stroke-width="2.27773" stroke-miterlimit="10"/>
<path d="M30.7874 120.541C26.2775 109.745 20.2188 99.4948 12.7934 90.2928C20.7654 99.0393 27.553 108.925 32.8374 119.584L30.7874 120.541Z" fill="#494444"/>
<path d="M43.5427 174.614C37.7117 169.649 32.9285 163.59 29.5119 156.894C33.6118 163.18 38.8961 168.647 44.9549 172.838L43.5427 174.66V174.614Z" fill="#494444"/>
<path d="M71.6954 152.748C68.6888 148.42 67.0033 143.364 66.7755 138.353C67.7777 143.273 70.1465 147.828 73.472 151.336L71.6954 152.748Z" fill="#494444"/>
<path d="M73.472 161.586C81.1707 160.857 88.7328 156.985 94.0171 150.88C89.3705 157.44 82.0362 162.269 73.8364 163.818L73.5175 161.586H73.472Z" fill="#494444"/>
<path d="M57.6646 199.578C60.0334 194.84 64.0422 191.287 68.3699 188.691C72.6976 186.094 77.4352 184.363 82.0818 182.632C77.5719 184.682 73.0165 186.777 68.9621 189.647C64.9533 192.472 61.4912 196.162 59.7145 200.535L57.6646 199.578Z" fill="#494444"/>
<defs>
<filter id="filter0_f_1_2006" x="7.55544" y="0.778183" width="118.442" height="118.442" filterUnits="userSpaceOnUse" color-interpolation-filters="sRGB">
<feFlood flood-opacity="0" result="BackgroundImageFix"/>
<feBlend mode="normal" in="SourceGraphic" in2="BackgroundImageFix" result="shape"/>
<feGaussianBlur stdDeviation="9.1109" result="effect1_foregroundBlur_1_2006"/>
</filter>
</defs>
</svg>
