<svg width="292" height="328" viewBox="0 0 292 328" fill="none" xmlns="http://www.w3.org/2000/svg">
<g opacity="0.6" filter="url(#filter0_f_110_3)">
<circle cx="184" cy="69" r="62" fill="#F28B8B"/>
</g>
<g opacity="0.6" filter="url(#filter1_f_110_3)">
<circle cx="121" cy="165" r="62" fill="#F28B8B"/>
</g>
<path d="M191.2 49.7625C188.852 45.8995 187.025 41.6054 186.653 36.8551C186.166 32.1222 187.512 27.11 190.51 23.3116C193.326 19.4822 198.216 16.5678 203.159 17.4558C205.489 17.7455 207.88 19.1984 209.177 21.1697C210.474 23.141 212.161 23.0596 214.572 23.1026C220.211 23.1809 223.728 29.3279 223.315 34.3151C223.167 39.4964 220.49 44.2425 216.816 47.4407C213.075 50.5903 208.899 52.8096 204.122 53.7723C199.424 54.4884 194.041 53.7848 191.169 49.9431L191.2 49.7625ZM191.575 49.5295C194.297 53.1595 199.832 52.5502 203.456 50.9426C207.226 49.1369 210.974 46.8069 213.948 44.0087C216.873 41.2766 219.151 37.7637 219.558 33.8913C219.933 30.1995 218.22 25.8879 214.41 25.1204C213.441 24.9163 212.146 24.8793 210.895 24.3665C209.644 23.8536 208.716 22.764 208.052 21.8687C206.887 19.9945 205.188 18.8465 202.99 18.654C198.641 18.203 195.297 21.644 193.314 25.1705C191.216 28.7145 189.875 32.6121 189.178 36.8806C188.529 41.0831 189.064 45.75 191.526 49.5955L191.575 49.5295Z" fill="#494444"/>
<path d="M220.847 38.5018C222.179 37.2435 223.791 37.8185 225.121 38.0847C226.781 38.5937 227.929 40.3534 228.399 41.5128C228.948 42.4257 229.273 43.7832 229.95 44.3834C230.597 45.1641 231.851 46.0867 232.475 47.8677C233.492 51.4644 231.616 54.154 229.93 56.1697C228.195 58.2514 226.294 60.0068 224.344 61.8282C222.328 63.6011 220.294 65.2593 217.204 66.1407C214.211 66.89 210.912 66.3963 208.358 65.0269C203.299 62.222 200.063 57.9084 197.333 53.4588L197.575 53.1287C202.158 55.8889 206.075 59.2782 210.289 61.1566C212.363 62.0716 214.385 62.6428 216.399 62.3944C218.395 62.0314 220.811 60.9597 223.064 59.9715C225.299 58.8686 227.482 57.422 228.873 55.3927C230.281 53.478 230.303 50.5436 229.406 49.2734C229.023 48.6868 228.148 47.941 227.202 46.7368C226.058 45.387 226.029 44.0431 225.525 42.6545C225.169 41.4775 225.096 40.6094 224.255 40.0927C223.396 39.4615 222.208 38.5875 221.243 38.7932L220.913 38.5504L220.847 38.5018Z" fill="#494444"/>
<path d="M196.864 19.2359C196.363 18.2571 195.161 17.6782 194.157 17.245C193.136 16.6972 192.483 17.0312 191.404 17.2544C189.459 17.9611 185.651 19.1279 183.462 18.2304C181.67 17.6243 179.268 18.4008 177.943 20.4787C176.667 22.4905 176.659 25.1297 177.025 27.536C177.639 30.0219 178.301 32.4417 178.668 34.848C179.034 37.2542 179.533 39.7576 180.306 41.7502C181.41 45.9199 185.659 48.0276 190.738 49.4225L190.742 49.8322C188.124 50.3485 185.387 50.4725 182.657 49.4818C179.878 48.5571 177.33 46.0729 176.272 43.3617C175.099 40.6679 174.993 38.0461 174.82 35.3758C174.648 32.7055 174.541 30.0837 174.796 27.5241C175.099 24.8985 175.566 22.1893 176.838 19.7677C177.947 17.4296 180.348 14.7188 183.824 14.8338C186.696 15.2167 187.869 14.4516 190.932 14.1607C192.307 13.9511 194.426 14.3903 195.468 15.4624C196.445 16.486 197.505 17.6726 197.34 19.2806L196.93 19.2845L196.864 19.2359Z" fill="#494444"/>
<path d="M175.437 22.5021C174.565 22.166 173.521 22.6183 172.687 22.9212C171.691 23.3076 171.514 23.6863 170.998 24.5271C170.211 26.2885 167.872 28.6381 166.06 29.4419C164.217 30.4263 162.291 31.2476 162.015 33.2828C161.721 35.2035 162.807 37.3243 164.148 38.8199C167.044 41.6614 170.83 43.4291 174.635 45.3114C178.144 47.18 182.055 48.2253 186.601 48.822L186.72 49.2143C182.527 51.319 177.345 51.1709 172.836 49.2788C168.834 47.2509 164.497 44.5703 162.406 40.082C161.418 37.8291 160.791 35.6384 160.768 33.1798C160.727 30.6065 162.524 28.1636 164.117 26.6898C166.036 25.049 166.997 24.4334 168.634 22.4838C169.363 21.4934 171.223 20.6236 172.422 20.7927C173.602 20.8472 175.144 20.9639 175.927 22.2516L175.684 22.5817L175.437 22.5021Z" fill="#494444"/>
<path d="M202.08 58.0698C200.447 60.4292 198.303 62.5147 195.529 63.9341C192.822 65.402 189.367 65.8114 186.161 64.7759C182.871 63.5773 180.535 60.9436 179.393 58.0692C178.252 55.1949 178.141 52.1633 178.639 49.2736C179.811 51.9674 180.786 54.5154 182.215 56.5839C183.693 58.5863 185.413 60.2586 187.501 60.8784C189.558 61.6787 192.047 61.4751 194.485 60.9277C196.97 60.3143 199.484 59.1104 202.129 58.0038L202.08 58.0698Z" fill="#494444"/>
<path d="M191.592 49.644C196.607 46.0071 200.839 41.0825 203.967 35.447C202.156 41.6439 198.9 47.5921 194.39 52.6176L191.641 49.578L191.592 49.644Z" fill="#494444"/>
<path d="M184.807 49.7404C184.797 46.9866 183.78 43.3898 183.159 40.0843C182.652 36.7614 181.896 32.9491 183.785 29.9644C182.635 33.188 184.027 36.5518 185.138 39.6068C186.332 42.8249 187.914 45.5148 188.869 49.4728L184.758 49.8064L184.807 49.7404Z" fill="#494444"/>
<path d="M176.794 48.3237C174.085 44.3985 172.192 40.0559 171.233 35.6882C173.466 39.5686 176.383 42.9345 179.768 45.5256L176.794 48.3237Z" fill="#494444"/>
<path d="M200.927 57.4249C202.578 55.1801 203.912 55.856 204.599 55.7512L206.78 55.8292C208.076 55.8662 209.138 55.5285 210.443 54.8605C213.071 53.6393 215.532 52.0917 218.124 50.6413C215.963 52.6122 213.884 54.7463 211.476 56.6376C210.387 57.5658 208.79 58.6299 207.071 58.8919L204.797 59.3557C204.092 59.3459 203.673 60.0548 204.599 59.2101L200.878 57.4909L200.927 57.4249Z" fill="#494444"/>
<path d="M119.768 167.637C119.925 172.127 119.345 176.788 117.255 181.152C115.28 185.498 111.675 189.154 107.152 191.016C102.743 192.86 97.0235 193.029 93.2563 189.851C91.3416 188.443 90.0232 185.947 89.8545 183.687C89.7829 181.294 88.2022 180.538 86.1418 179.328C81.2948 176.374 81.3441 169.39 84.1741 165.266C86.9032 160.863 91.5819 158.098 96.3595 157.136C101.203 156.222 105.86 156.391 110.498 157.97C114.923 159.699 119.232 162.97 119.834 167.686L119.768 167.637ZM119.358 167.641C118.791 163.155 113.705 160.94 109.718 160.551C105.568 160.246 101.078 160.403 97.1688 161.292C93.2594 162.181 89.5731 164.15 87.2909 167.253C85.1057 170.224 84.4605 174.836 87.4354 177.431C88.2452 178.128 89.2181 178.742 90.0802 179.783C90.9424 180.824 91.1695 182.314 91.3266 183.345C91.4293 185.557 92.2991 187.418 94.0643 188.614C97.6122 191.122 102.223 189.833 105.662 187.784C109.283 185.767 112.322 183.017 115.045 179.73C117.636 176.345 119.563 172.065 119.292 167.592L119.358 167.641Z" fill="#494444"/>
<path d="M88.3946 162.571C86.6447 163.013 85.501 161.663 84.4932 160.82C83.3009 159.537 83.1671 157.505 83.3847 156.241C83.3421 155.192 83.7715 153.778 83.5347 152.994C83.3289 152.029 82.7581 150.591 83.0516 148.671C83.9686 145.072 86.9226 143.684 89.4222 142.775C91.9217 141.867 94.5221 141.236 97.0741 140.671C99.692 140.155 102.327 139.753 105.433 140.511C108.489 141.335 110.985 143.475 112.581 145.87C115.561 150.809 116.268 156.212 116.366 161.473L115.974 161.591C113.389 156.943 111.704 152.041 108.982 148.411C107.654 146.621 106.246 145.077 104.304 144.259C102.445 143.604 99.7538 143.252 97.3088 142.98C94.7667 142.84 92.2109 142.995 89.9755 144.098C87.7712 145.02 86.3357 147.525 86.4656 149.147C86.4559 149.852 86.9083 150.897 87.0868 152.452C87.4148 154.22 86.7699 155.373 86.5211 156.818C86.2375 158.034 85.8839 158.791 86.3188 159.721C86.8198 160.7 87.4391 162.071 88.2451 162.359L88.3634 162.751L88.3946 162.571Z" fill="#494444"/>
<path d="M99.564 191.235C99.492 192.301 100.257 193.474 100.855 194.321C101.471 195.282 102.176 195.292 103.228 195.659C105.215 196.001 109.157 196.866 110.569 198.82C111.778 200.218 114.324 200.768 116.494 199.616C118.615 198.531 119.97 196.273 120.85 193.969C121.598 191.569 122.214 189.072 123.094 186.769C123.974 184.465 124.837 182.048 125.095 179.898C126.22 175.74 123.578 171.863 119.886 168.029L120.129 167.699C122.595 168.496 125.034 169.883 127.005 172.044C128.976 174.206 129.91 177.64 129.479 180.578C129.162 183.499 127.938 185.854 126.714 188.21C125.556 190.614 124.267 192.921 122.827 195.016C121.273 197.129 119.539 199.211 117.193 200.741C115.076 202.236 111.611 203.35 108.644 201.575C106.267 199.827 104.923 199.856 102.158 198.636C100.859 198.189 99.2216 196.68 98.8799 195.208C98.5558 193.85 98.1967 192.264 99.1678 190.943L99.4979 191.186L99.564 191.235Z" fill="#494444"/>
<path d="M119.817 199.11C120.397 199.842 121.53 199.963 122.433 200.118C123.516 200.305 123.825 200.023 124.689 199.54C126.268 198.361 129.49 197.577 131.442 197.69C133.508 197.785 135.592 197.995 136.872 196.393C138.038 194.808 138.213 192.495 137.735 190.516C136.666 186.576 134.273 183.189 131.978 179.669C129.881 176.296 127.034 173.388 123.403 170.718L123.646 170.387C128.188 170.574 132.705 173.286 135.643 177.176C138.088 180.907 140.523 185.343 140.062 190.396C139.79 192.841 139.253 195.092 138.043 197.152C136.802 199.393 134.06 200.632 131.9 201.079C129.445 201.511 128.282 201.571 125.897 202.463C124.804 202.981 122.72 202.771 121.795 202.091C120.757 201.429 119.52 200.621 119.473 199.162L119.883 199.158L119.817 199.11Z" fill="#494444"/>
<path d="M114.436 154.967C116.998 153.697 119.942 153.013 123.009 153.132C126.075 153.251 129.316 154.516 131.586 157.101C133.808 159.752 134.578 163.269 134.098 166.273C133.636 169.392 132.284 172.061 130.386 174.226C130.769 171.353 131.17 168.596 130.966 166.106C130.714 163.682 130.003 161.329 128.529 159.736C127.104 158.077 124.881 156.951 122.529 156.137C120.08 155.455 117.291 155.235 114.419 154.852L114.436 154.967Z" fill="#494444"/>
<path d="M119.341 167.526C113.233 168.223 107.039 170.281 101.58 173.692C106.292 169.222 112.029 165.71 118.434 163.502L119.341 167.526Z" fill="#494444"/>
<path d="M125.355 170.83C123.968 173.27 123.099 176.802 121.949 180.026C120.716 183.086 119.406 186.803 116.324 188.504C118.975 186.283 119.368 182.705 119.994 179.503C120.536 176.138 120.523 172.974 121.7 169.16L125.421 170.879L125.355 170.83Z" fill="#494444"/>
<path d="M130.65 174.42C131.075 179.514 131.306 184.872 129.942 189.77C129.878 184.738 128.325 179.933 126.626 175.326L130.65 174.42Z" fill="#494444"/>
<path d="M115.135 156.091C112.671 157.229 111.774 155.959 111.1 155.768L109.286 154.638C108.296 153.909 107.097 153.74 105.555 153.624C102.701 153.355 99.7352 153.514 96.8007 153.492C99.6304 152.827 102.509 152.095 105.536 151.575C106.96 151.299 108.828 151.249 110.44 151.824L112.611 152.607C113.139 152.995 113.889 152.529 112.761 152.818L115.087 156.157L115.135 156.091Z" fill="#494444"/>
<path d="M130.196 155.671C149.271 151.591 169.432 153.091 188.168 158.325C206.859 164.034 224.428 172.378 241.834 180.804C276.618 198.248 308.011 221.132 339.174 244.052L338.931 244.382C304.986 225.521 273.92 202.469 240.787 182.781C224.3 172.69 206.104 165.615 187.313 161.562C168.681 157.016 149.628 154.702 130.248 156.015L130.245 155.605L130.196 155.671Z" fill="#494444"/>
<path d="M187.246 63.4379C188.197 73.9038 189.342 84.1055 190.847 94.3694C191.78 104.721 194.057 115.043 198.768 124.408C207.845 143.191 219.118 160.231 232.336 176.566L232.093 176.896C215.236 163.989 203.127 145.317 196.66 125.198C193.647 115.047 190.163 105.26 187.476 94.942C185.314 84.6022 185.016 73.8024 186.771 63.3932L187.18 63.3894L187.246 63.4379Z" fill="#494444"/>
<path d="M175.481 156.624C170.599 149.982 165.52 143.194 158.48 138.932C150.468 134.057 140.736 132.902 132.71 128.322C136.599 135.76 141.582 142.68 148.268 147.699C154.954 152.718 163.343 155.836 175.415 156.575L175.481 156.624Z" stroke="#494444" stroke-width="1.36429" stroke-miterlimit="10"/>
<path d="M173.446 156.348C165.41 152.473 157.97 147.51 151.391 141.654C158.456 146.85 166.249 151.055 174.392 154.093L173.446 156.348Z" fill="#494444"/>
<path d="M188.001 161.457C181.718 161.008 175.255 160.528 169.722 163.071C163.421 165.966 158.975 172.565 152.891 175.72C159.317 177.495 165.846 178.024 171.779 176.182C177.712 174.34 182.917 170.029 188.049 161.391L188.001 161.457Z" stroke="#494444" stroke-width="1.36429" stroke-miterlimit="10"/>
<path d="M188.001 161.457C181.718 161.008 175.255 160.528 169.722 163.071C163.421 165.966 158.975 172.565 152.891 175.72C159.317 177.495 165.846 178.024 171.779 176.182C177.712 174.34 182.917 170.029 188.049 161.391L188.001 161.457Z" stroke="#494444" stroke-width="1.36429" stroke-miterlimit="10"/>
<path d="M186.845 162.337C181.24 165.947 174.936 168.432 168.505 169.705C174.699 167.647 180.471 164.364 185.367 160.334L186.845 162.337Z" fill="#494444"/>
<path d="M231.294 172.035C228.715 166.272 226.053 160.347 226.652 154.276C227.243 147.386 231.936 140.867 232.791 134.171C236.613 139.626 239.34 145.6 239.693 151.76C239.997 157.987 237.68 164.32 231.36 172.083L231.294 172.035Z" stroke="#494444" stroke-width="2.27382" stroke-miterlimit="10"/>
<path d="M231.294 172.035C228.715 166.272 226.053 160.347 226.652 154.276C227.243 147.386 231.936 140.867 232.791 134.171C236.613 139.626 239.34 145.6 239.693 151.76C239.997 157.987 237.68 164.32 231.36 172.083L231.294 172.035Z" stroke="#494444" stroke-width="1.36429" stroke-miterlimit="10"/>
<path d="M229.634 168.067C232.021 162.192 233.387 155.77 233.506 149.245C234.779 155.675 234.827 162.527 233.562 169.227L229.634 168.067Z" fill="#494444"/>
<path d="M192.604 101.664C198.3 99.037 204.208 96.2605 207.736 91.3262C211.863 85.7141 212.526 77.7576 216.293 72.0833C209.849 73.6518 203.875 76.3797 199.573 80.8459C195.27 85.3122 192.838 91.6624 192.604 101.664Z" stroke="#494444" stroke-width="1.36429" stroke-miterlimit="10"/>
<path d="M192.604 101.664C198.3 99.037 204.208 96.2605 207.736 91.3262C211.863 85.7141 212.526 77.7576 216.293 72.0833C209.849 73.6518 203.875 76.3797 199.573 80.8459C195.27 85.3122 192.838 91.6624 192.604 101.664Z" stroke="#494444" stroke-width="1.36429" stroke-miterlimit="10"/>
<path d="M193.068 100.479C196.285 93.8922 200.589 87.9015 205.87 82.9343C201.201 88.4531 197.703 94.7314 195.323 101.425L193.068 100.479Z" fill="#494444"/>
<path d="M280.721 204.012C273.14 196.198 265.344 188.124 262.779 178.608C259.908 167.849 264.079 156.368 261.635 145.719C271.191 152.646 279.217 160.685 283.222 170.04C287.276 179.329 287.015 189.921 280.721 204.012Z" stroke="#494444" stroke-width="2.27382" stroke-miterlimit="10"/>
<path d="M280.721 204.012C273.14 196.198 265.344 188.124 262.779 178.608C259.908 167.849 264.079 156.368 261.635 145.719C271.191 152.646 279.217 160.685 283.222 170.04C287.276 179.329 287.015 189.921 280.721 204.012Z" stroke="#494444" stroke-width="2.27382" stroke-miterlimit="10"/>
<path d="M278.309 202.035C278.509 191.804 276.509 181.381 272.5 171.616C277.7 180.73 281.206 191.041 282.372 201.767L278.243 201.986L278.309 202.035Z" fill="#494444"/>
<path d="M300.913 221.101C292.967 228.584 284.809 236.218 275.276 238.667C264.499 241.424 253.049 237.072 242.366 239.287C249.424 229.828 257.661 221.948 267.034 218.057C276.407 214.167 286.967 214.609 300.913 221.101Z" stroke="#494444" stroke-width="2.27382" stroke-miterlimit="10"/>
<path d="M300.913 221.101C292.967 228.584 284.809 236.218 275.276 238.667C264.499 241.424 253.049 237.072 242.366 239.287C249.424 229.828 257.661 221.948 267.034 218.057C276.407 214.167 286.967 214.609 300.913 221.101Z" stroke="#494444" stroke-width="2.27382" stroke-miterlimit="10"/>
<path d="M298.887 223.578C288.639 223.265 278.246 225.083 268.398 228.929C277.596 223.893 287.99 220.549 298.734 219.498L298.887 223.578Z" fill="#494444"/>
<path d="M269.821 200.573C239.673 195.086 207.266 198.619 179.399 212.715C192.932 204.966 207.999 199.972 223.416 197.271C238.898 194.618 254.796 194.305 270.439 196.552L269.772 200.639L269.821 200.573Z" fill="#494444"/>
<path d="M203.139 139.628C198.801 135.013 194.397 130.35 188.593 128.421C182 126.319 174.181 128.097 167.689 126.273C171.25 131.944 175.623 136.788 181.188 139.457C186.754 142.126 193.543 142.439 203.139 139.628Z" stroke="#494444" stroke-width="1.36429" stroke-miterlimit="10"/>
<path d="M203.139 139.628C198.801 135.013 194.397 130.35 188.593 128.421C182 126.319 174.181 128.097 167.689 126.273C171.25 131.944 175.623 136.788 181.188 139.457C186.754 142.126 193.543 142.439 203.139 139.628Z" stroke="#494444" stroke-width="1.36429" stroke-miterlimit="10"/>
<path d="M201.817 140.182C195.249 139.014 188.899 136.582 183.343 133.208C189.27 135.939 195.709 137.419 202.155 137.785L201.883 140.23L201.817 140.182Z" fill="#494444"/>
<path d="M199.373 129.533C198.352 125.527 197.313 121.405 194.307 118.991C190.954 116.219 185.394 115.895 181.894 113.321C182.002 117.877 183.058 122.113 185.561 125.073C188.064 128.033 192.292 129.616 199.373 129.533Z" stroke="#494444" stroke-width="1.36429" stroke-miterlimit="10"/>
<path d="M199.373 129.533C198.352 125.527 197.313 121.405 194.307 118.991C190.954 116.219 185.394 115.895 181.894 113.321C182.002 117.877 183.058 122.113 185.561 125.073C188.064 128.033 192.292 129.616 199.373 129.533Z" stroke="#494444" stroke-width="1.36429" stroke-miterlimit="10"/>
<path d="M197.175 129.341C193.432 127.097 190.273 124.061 188.092 120.525C190.957 123.547 194.518 125.759 198.235 127.068L197.223 129.275L197.175 129.341Z" fill="#494444"/>
<path d="M178.939 90.0878C175.17 88.4347 171.22 86.7505 167.491 87.6706C163.189 88.678 159.606 92.8589 155.453 94.078C159.151 96.7973 163.167 98.5301 167 98.2974C170.834 98.0648 174.648 95.7833 178.939 90.0878Z" stroke="#494444" stroke-width="1.36429" stroke-miterlimit="10"/>
<path d="M178.939 90.0878C175.17 88.4347 171.22 86.7505 167.491 87.6706C163.189 88.678 159.606 92.8589 155.453 94.078C159.151 96.7973 163.167 98.5301 167 98.2974C170.834 98.0648 174.648 95.7833 178.939 90.0878Z" stroke="#494444" stroke-width="1.36429" stroke-miterlimit="10"/>
<path d="M177.43 91.7248C173.396 93.3362 169.042 94 164.874 93.58C169.034 93.1804 172.971 91.701 176.279 89.5554L177.43 91.7248Z" fill="#494444"/>
<path d="M173.591 86.1545C170.89 83.0489 168.106 79.7801 167.873 75.9464C167.553 71.5399 170.476 66.8735 170.403 62.5466C174.1 65.2659 176.951 68.5832 177.871 72.3121C178.791 76.0409 177.75 80.3618 173.591 86.1545Z" stroke="#494444" stroke-width="1.36429" stroke-miterlimit="10"/>
<path d="M173.591 86.1545C170.89 83.0489 168.106 79.7801 167.873 75.9464C167.553 71.5399 170.476 66.8735 170.403 62.5466C174.1 65.2659 176.951 68.5832 177.871 72.3121C178.791 76.0409 177.75 80.3618 173.591 86.1545Z" stroke="#494444" stroke-width="1.36429" stroke-miterlimit="10"/>
<path d="M172.29 83.7736C173.402 79.9109 173.592 75.7783 172.734 71.6882C174.377 75.5414 175.041 79.8956 174.704 84.2263L172.29 83.7736Z" fill="#494444"/>
<path d="M154.504 76.6946C155.873 74.141 157.274 71.4068 156.938 68.8199C156.55 65.8893 153.985 63.2905 153.434 60.4434C151.359 62.9873 149.893 65.673 149.77 68.3297C149.647 70.9864 150.935 73.6627 154.504 76.6946Z" stroke="#494444" stroke-width="1.36429" stroke-miterlimit="10"/>
<path d="M154.504 76.6946C155.873 74.141 157.274 71.4068 156.938 68.8199C156.55 65.8893 153.985 63.2905 153.434 60.4434C151.359 62.9873 149.893 65.673 149.77 68.3297C149.647 70.9864 150.935 73.6627 154.504 76.6946Z" stroke="#494444" stroke-width="1.36429" stroke-miterlimit="10"/>
<path d="M153.117 75.6749C152.434 72.7307 152.39 69.7477 153.019 66.9551C153.161 69.806 154.038 72.4861 155.322 74.7527L153.051 75.6263L153.117 75.6749Z" fill="#494444"/>
<path d="M149.249 75.6783C146.656 77.1288 144.063 78.5792 141.504 78.3245C138.583 78.0076 135.921 75.5409 132.982 75.1095C135.47 72.9715 138.046 71.4065 140.716 71.234C143.386 71.0614 146.086 72.2328 149.249 75.6783Z" stroke="#494444" stroke-width="1.36429" stroke-miterlimit="10"/>
<path d="M149.249 75.6783C146.656 77.1288 144.063 78.5792 141.504 78.3245C138.583 78.0076 135.921 75.5409 132.982 75.1095C135.47 72.9715 138.046 71.4065 140.716 71.234C143.386 71.0614 146.086 72.2328 149.249 75.6783Z" stroke="#494444" stroke-width="1.36429" stroke-miterlimit="10"/>
<path d="M147.34 76.6142C145.033 75.3244 142.337 74.5629 139.469 74.5897C142.166 73.8268 145.198 73.7164 148.171 74.3771L147.291 76.6803L147.34 76.6142Z" fill="#494444"/>
<path d="M184.892 211.057C185.672 213.869 186.404 216.747 185.493 219.231C184.454 222.028 181.34 223.909 180.169 226.608C178.732 223.72 177.868 220.745 178.401 218.085C178.933 215.424 180.765 213.21 184.826 211.008L184.892 211.057Z" stroke="#494444" stroke-width="1.36429" stroke-miterlimit="10"/>
<path d="M184.892 211.057C185.672 213.869 186.404 216.747 185.493 219.231C184.454 222.028 181.34 223.909 180.169 226.608C178.732 223.72 177.868 220.745 178.401 218.085C178.933 215.424 180.765 213.21 184.826 211.008L184.892 211.057Z" stroke="#494444" stroke-width="1.36429" stroke-miterlimit="10"/>
<path d="M185.321 213.102C183.503 215.021 182.116 217.46 181.306 220.221C181.23 217.419 181.891 214.445 183.291 211.711L185.272 213.168L185.321 213.102Z" fill="#494444"/>
<path d="M204.579 204.07C205.468 207.979 206.423 211.937 205.242 215.341C203.902 219.239 199.91 221.899 198.42 225.585C196.58 221.586 195.607 217.514 196.278 213.835C196.9 210.223 199.345 207.037 204.562 203.955L204.579 204.07Z" stroke="#494444" stroke-width="1.36429" stroke-miterlimit="10"/>
<path d="M204.579 204.07C205.468 207.979 206.423 211.937 205.242 215.341C203.902 219.239 199.91 221.899 198.42 225.585C196.58 221.586 195.607 217.514 196.278 213.835C196.9 210.223 199.345 207.037 204.562 203.955L204.579 204.07Z" stroke="#494444" stroke-width="1.36429" stroke-miterlimit="10"/>
<path d="M204.915 206.657C202.598 209.531 200.843 213.022 199.961 216.85C200.073 212.964 200.986 208.956 202.837 205.332L204.915 206.657Z" fill="#494444"/>
<path d="M235.47 197.895C237.291 203.304 239.081 208.894 237.14 213.469C234.895 218.736 228.043 222.242 225.533 227.315C222.153 221.674 220.248 216.102 221.185 211.094C222.187 206.134 226.278 201.817 235.47 197.895Z" stroke="#494444" stroke-width="1.36429" stroke-miterlimit="10"/>
<path d="M235.47 197.895C237.291 203.304 239.081 208.894 237.14 213.469C234.895 218.736 228.043 222.242 225.533 227.315C222.153 221.674 220.248 216.102 221.185 211.094C222.187 206.134 226.278 201.817 235.47 197.895Z" stroke="#494444" stroke-width="1.36429" stroke-miterlimit="10"/>
<path d="M235.767 199.843C232.034 203.812 229.163 208.823 227.952 214.342C228.375 208.65 230.519 203.105 233.883 198.255L235.864 199.711L235.767 199.843Z" fill="#494444"/>
<path d="M239.982 194.804C237.997 189.479 235.815 184.008 231.417 181.688C226.327 179.064 218.786 180.741 213.616 178.364C214.546 184.846 216.631 190.449 220.579 193.658C224.527 196.867 230.386 197.615 240.048 194.853L239.982 194.804Z" stroke="#494444" stroke-width="1.36429" stroke-miterlimit="10"/>
<path d="M239.982 194.804C237.997 189.479 235.815 184.008 231.417 181.688C226.327 179.064 218.786 180.741 213.616 178.364C214.546 184.846 216.631 190.449 220.579 193.658C224.527 196.867 230.386 197.615 240.048 194.853L239.982 194.804Z" stroke="#494444" stroke-width="1.36429" stroke-miterlimit="10"/>
<path d="M238.447 195.507C232.761 193.97 227.619 191.002 223.646 186.859C228.105 190.342 233.468 192.456 238.9 193.093L238.447 195.507Z" fill="#494444"/>
<path d="M206.576 200.248C204.055 197.173 201.452 193.936 197.999 192.821C194.119 191.595 189.592 193.047 185.729 191.936C187.781 195.785 190.451 199.071 193.696 200.746C197.007 202.469 200.942 202.514 206.624 200.182L206.576 200.248Z" stroke="#494444" stroke-width="1.36429" stroke-miterlimit="10"/>
<path d="M206.576 200.248C204.055 197.173 201.452 193.936 197.999 192.821C194.119 191.595 189.592 193.047 185.729 191.936C187.781 195.785 190.451 199.071 193.696 200.746C197.007 202.469 200.942 202.514 206.624 200.182L206.576 200.248Z" stroke="#494444" stroke-width="1.36429" stroke-miterlimit="10"/>
<path d="M204.5 200.858C200.46 200.125 196.806 198.454 193.636 196.123C197.159 197.697 200.969 198.464 204.706 198.364L204.5 200.858Z" fill="#494444"/>
<path d="M185.57 208.198C183.432 205.71 181.276 203.108 178.189 202.464C174.674 201.711 170.446 203.586 166.899 203.013C168.569 206.276 170.791 208.927 173.671 210.129C176.551 211.332 180.235 210.887 185.57 208.198Z" stroke="#494444" stroke-width="1.36429" stroke-miterlimit="10"/>
<path d="M185.57 208.198C183.432 205.71 181.276 203.108 178.189 202.464C174.674 201.711 170.446 203.586 166.899 203.013C168.569 206.276 170.791 208.927 173.671 210.129C176.551 211.332 180.235 210.887 185.57 208.198Z" stroke="#494444" stroke-width="1.36429" stroke-miterlimit="10"/>
<path d="M183.89 209.099C180.33 208.821 176.829 207.772 173.976 205.979C177.248 207.063 180.61 207.196 183.818 206.707L183.907 209.214L183.89 209.099Z" fill="#494444"/>
<path d="M187.717 96.1363C182.231 89.7619 173.842 86.6439 165.47 83.6406C161.308 82.1059 157.081 80.5227 153.255 78.1161C149.429 75.7094 146.169 72.3959 144.262 68.3485C146.495 72.2289 149.884 75.2298 153.772 77.2752C157.659 79.3206 161.835 80.5601 166.124 81.7822C174.572 84.1291 183.742 86.6004 190.642 93.4041L187.668 96.2024L187.717 96.1363Z" fill="#494444"/>
<defs>
<filter id="filter0_f_110_3" x="63.47" y="-51.53" width="241.06" height="241.06" filterUnits="userSpaceOnUse" color-interpolation-filters="sRGB">
<feFlood flood-opacity="0" result="BackgroundImageFix"/>
<feBlend mode="normal" in="SourceGraphic" in2="BackgroundImageFix" result="shape"/>
<feGaussianBlur stdDeviation="29.265" result="effect1_foregroundBlur_110_3"/>
</filter>
<filter id="filter1_f_110_3" x="0.470001" y="44.47" width="241.06" height="241.06" filterUnits="userSpaceOnUse" color-interpolation-filters="sRGB">
<feFlood flood-opacity="0" result="BackgroundImageFix"/>
<feBlend mode="normal" in="SourceGraphic" in2="BackgroundImageFix" result="shape"/>
<feGaussianBlur stdDeviation="29.265" result="effect1_foregroundBlur_110_3"/>
</filter>
</defs>
</svg>
