<svg width="69" height="102" viewBox="0 0 69 102" fill="none" xmlns="http://www.w3.org/2000/svg">
<g filter="url(#filter0_f_1_1681)">
<circle cx="24.9539" cy="24.844" r="15.989" fill="#F28B8B"/>
</g>
<g filter="url(#filter1_f_1_1681)">
<circle cx="50.5363" cy="39.7671" r="9.59341" fill="#F28B8B"/>
</g>
<g filter="url(#filter2_f_1_1681)">
<circle cx="30.2836" cy="55.7561" r="8.52747" fill="#F28B8B"/>
</g>
<path d="M23.8489 24.7649C25.2658 26.017 26.2543 27.4669 27.1769 29.0485C28.0337 30.5972 28.7586 32.4095 28.7915 34.2877C28.8245 36.1658 28.2973 37.9781 27.4076 39.5598C26.6497 41.1084 25.0681 42.723 22.9922 42.5583C21.0151 42.4924 19.1699 41.0096 18.478 39.1973C17.6871 37.385 17.7201 35.375 17.9507 33.5957C18.445 30.037 20.2902 26.1818 23.8489 24.7649ZM23.8489 24.9297C21.2129 27.1703 20.0596 30.4983 19.7301 33.7934C19.5324 35.4739 19.4335 37.0885 19.9607 38.6042C20.455 40.054 21.5753 41.2732 23.124 41.6357C24.7056 42.064 26.2873 40.8448 26.9463 39.2962C27.6712 37.7475 27.6712 35.9681 27.4405 34.3536C27.0122 31.1573 25.3317 27.9611 23.8489 24.8967V24.9297Z" fill="#2B2626"/>
<path d="M22.6956 24.6331C21.5753 28.06 18.9722 30.7949 15.743 32.3436C14.0955 33.0685 12.3821 33.4309 10.6357 33.6616C9.77896 33.7605 8.8234 33.7605 7.96668 33.3651C7.14291 32.9367 6.418 32.3106 5.98965 31.421C5.09998 29.6746 5.72604 27.3351 7.27472 26.0829C8.7575 24.7979 10.5368 24.2707 12.2503 23.8753C15.7431 23.1833 19.3017 23.381 22.6627 24.6661L22.6956 24.6331ZM22.5309 24.699C19.2029 24.6002 15.8089 24.699 12.6457 25.5557C11.064 25.9511 9.44948 26.3466 8.26325 27.2362C7.10998 28.0929 6.45096 29.5757 6.84637 31.0585C7.20883 32.5742 8.92226 33.5298 10.5698 33.1014C12.1844 32.7719 13.733 31.9811 15.117 31.0915C17.9507 29.4769 20.455 27.2362 22.5309 24.6661V24.699Z" fill="#2B2626"/>
<path d="M23.9148 23.2821C20.5539 24.04 17.2258 24.007 13.9637 22.8867C12.3491 22.2277 10.9323 21.0744 10.0097 19.6246C9.08703 18.2077 8.75751 16.2966 9.58128 14.6161C10.438 12.8697 12.6457 12.1777 14.3921 12.4743C16.2044 12.7379 17.786 13.4299 19.2358 14.4513C22.0366 16.5602 23.8819 19.7894 23.9148 23.2821ZM23.783 23.1833C22.6627 20.2177 20.7516 17.5487 18.2144 15.9012C16.9622 15.0774 15.5783 14.3195 14.1614 14.023C12.7775 13.7594 11.2288 13.99 10.3721 15.1104C9.48244 16.2636 9.51539 18.1089 10.471 19.361C11.4265 20.6461 12.9423 21.2721 14.3921 21.6016C17.3577 22.3595 20.6527 22.722 23.783 23.1833Z" fill="#2B2626"/>
<path d="M24.3761 24.4025C23.5194 21.2721 23.8818 18.043 25.3317 15.1433C26.1225 13.7264 27.3417 12.5402 28.7256 11.8153C30.1095 11.0574 31.79 10.662 33.4046 11.321C34.1954 11.6505 34.9203 12.2437 35.3157 13.1004C35.7441 13.9571 35.7111 15.0115 35.4146 15.8353C34.7885 17.5487 33.5693 18.7349 32.3172 19.6905C29.6152 21.6346 26.5508 23.1503 24.3431 24.4025H24.3761ZM24.442 24.2707C27.1439 21.9641 29.0221 19.9541 31.2628 18.3395C32.3831 17.4169 33.4705 16.4613 33.9977 15.3081C34.5249 14.2207 34.1624 12.9027 33.0421 12.1448C31.9218 11.3869 30.2413 11.4858 29.0221 12.2766C27.77 13.0674 27.078 14.4184 26.5838 15.7364C25.4964 18.3725 24.9033 21.338 24.4749 24.2377L24.442 24.2707Z" fill="#2B2626"/>
<path d="M24.3432 24.3036C27.0781 21.9971 30.7356 21.2392 34.2284 21.8323C35.9748 22.2607 37.5235 23.1833 38.8085 24.3366C40.0277 25.4898 41.3787 26.8079 41.4117 28.8179C41.4117 29.8393 40.7197 30.8279 39.83 31.2892C38.9733 31.7834 38.0177 31.9811 37.161 32.047C35.3487 32.2118 33.5364 31.8823 31.8889 31.2233C28.6597 29.7405 25.9248 27.4998 24.3432 24.3036ZM24.508 24.3366C26.8145 26.5772 29.6483 28.4884 32.5479 29.6087C33.9977 30.1688 35.5464 30.5643 37.0951 30.5313C38.5779 30.5313 40.2254 30.1359 40.522 28.752C40.7856 27.3351 39.6982 25.7205 38.4461 24.7649C37.161 23.7764 35.5135 23.3481 33.9648 23.1833C30.8674 22.8867 27.5065 23.2492 24.475 24.3366H24.508Z" fill="#2B2626"/>
<path d="M48.6608 39.4609L48.7267 39.0985L48.7926 39.2303C46.6508 38.8678 44.8056 40.0211 42.8944 40.4165C41.9389 40.7131 40.8845 41.0096 40.1925 41.7016C39.4346 42.3935 39.4346 43.5139 40.0936 44.1729C41.3458 45.4909 43.3228 45.0296 44.8715 43.9752C46.2554 43.0855 47.8041 41.405 48.6608 39.4609ZM48.8256 39.5268C48.3972 40.4824 48.2325 41.5698 47.903 42.6242C47.6064 43.7116 46.8485 44.766 45.8271 45.425C44.8715 46.084 43.6853 46.5453 42.4331 46.5124C41.214 46.5124 39.83 45.8534 39.3028 44.6671C38.7097 43.5468 39.0392 42.1299 39.83 41.3391C40.5879 40.5153 41.4446 39.7904 42.4002 39.1973C44.3443 37.9122 46.8815 38.3735 48.8585 39.0326H48.9574V39.1644L48.8585 39.4939L48.8256 39.5268Z" fill="#2B2626"/>
<path d="M49.847 39.1973C49.2539 41.0755 48.3972 42.8219 48.1006 44.6013C47.87 45.4909 47.7052 46.4465 48.0018 47.3691C48.2654 48.2588 49.0562 49.1155 49.8141 48.9507C50.4401 48.8189 50.9673 47.9622 51.2309 47.2373C51.4945 46.4465 51.4945 45.5898 51.3627 44.766C51.2309 43.9093 50.9673 43.0196 50.5719 42.13C50.2424 41.2403 49.7481 40.1199 49.847 39.1973ZM49.847 39.0326L51.6922 41.5039C52.2854 42.3276 52.8455 43.3162 53.0762 44.4365C53.3068 45.5568 53.175 46.776 52.6478 47.8304C52.1206 48.8189 51.2309 49.9393 49.7811 49.8404C48.4301 49.5768 47.9029 48.4235 47.4745 47.5339C47.0462 46.5783 46.6837 45.5239 46.7167 44.4035C46.8814 42.1629 48.1006 40.3177 49.8799 38.9996L49.847 39.0326Z" fill="#2B2626"/>
<path d="M50.3742 39.5927C51.6593 41.0096 52.7796 42.4594 54.2295 43.2832C54.9214 43.7445 55.7781 44.1729 56.6678 44.0411C57.5575 43.9422 58.4142 43.2832 58.6119 42.5253C58.7437 41.8663 58.3812 40.9767 57.9529 40.4165C57.4916 39.8893 56.9314 39.8234 56.0088 39.7575C54.1965 39.6257 52.2524 39.7245 50.3742 39.5598V39.5927ZM50.2424 39.5268C52.1206 38.4724 54.0317 38.077 56.0747 38.044C57.0303 37.9781 58.5789 38.4065 59.238 39.5598C59.8311 40.5812 60.0947 41.8004 59.4686 42.9207C58.8096 43.9093 57.8211 44.3376 56.8326 44.6012C55.844 44.8648 54.7237 44.9307 53.6693 44.5353C51.5934 43.6457 50.506 41.6357 50.2754 39.5268H50.2424Z" fill="#2B2626"/>
<path d="M50.0118 39.0326C51.6923 38.3406 53.1091 37.385 54.4601 36.3306C55.1521 35.8364 55.9099 35.3091 56.2394 34.4854C56.569 33.6946 56.4042 32.5742 55.7452 32.4095C55.0203 32.1459 54.1965 32.2447 53.6693 32.5742C53.1091 32.9037 52.6149 33.6616 52.1206 34.3536C51.0991 35.7046 50.4731 37.3521 50.0118 39.0985V39.0326ZM49.9129 39.1644C49.188 37.2203 49.6163 35.0785 50.6708 33.3321C51.2309 32.5083 51.857 31.6846 52.9773 31.1574C54.1306 30.6631 55.3827 30.9267 56.2394 31.6516C57.228 32.5413 56.9314 33.7605 56.7337 34.6501C56.5031 35.6057 56.0417 36.5942 55.3827 37.3521C54.0317 38.769 51.9559 39.7245 49.88 39.1644H49.9129Z" fill="#2B2626"/>
<path d="M49.5834 39.4939C48.7596 37.6816 48.1665 35.9681 47.2769 34.4524C46.8815 33.6616 46.4202 32.8378 45.6623 32.3106C44.9374 31.7834 43.85 31.7175 43.3557 32.3106C42.3013 33.5627 42.9274 35.2762 44.1466 36.2647C45.3987 37.2862 47.211 38.0111 48.8914 39.0655V39.2303C46.8815 39.1644 44.8715 38.8678 43.0262 37.6157C42.1366 36.9237 41.4775 35.8363 41.3787 34.6501C41.2139 33.4639 41.8071 32.1459 42.8615 31.6187C43.9489 30.9926 45.1351 31.421 45.9588 31.8823C46.8485 32.3436 47.7711 32.9037 48.4631 33.7275C49.7482 35.408 50.0777 37.5827 49.7811 39.5268H49.6164L49.5834 39.4939Z" fill="#2B2626"/>
<path d="M31.5923 56.2658C31.6912 54.6182 31.6583 53.0695 31.2958 51.5868C31.164 50.8289 30.9992 50.0051 30.4391 49.445C29.8789 48.8848 28.9892 48.8519 28.4291 49.3132C27.3088 50.2358 27.4735 51.7515 28.2314 52.8389C28.5938 53.3991 29.0881 53.9592 29.7471 54.4535C30.3402 54.9477 31.197 55.5408 31.5594 56.2658H31.5923ZM31.6253 56.4305C30.6697 56.101 29.9778 55.9033 29.121 55.5738C28.2973 55.2113 27.4406 54.6841 26.8475 53.8604C26.2214 53.0366 25.9578 51.9163 26.1555 50.8618C26.2873 49.8074 27.1111 48.786 28.0996 48.5224C29.0881 48.1599 30.1425 48.4565 30.8345 49.0496C31.5594 49.6097 32.2184 50.3346 32.6468 51.1914C33.3717 52.9377 33.0751 55.0466 31.6912 56.4305H31.6253Z" fill="#2B2626"/>
<path d="M31.5923 56.9907C29.6812 56.5953 27.8689 56.0022 26.1225 56.101C25.2658 56.0681 24.2773 56.134 23.5194 56.6941C22.7615 57.2543 22.3661 58.2428 22.6297 59.0336C23.157 60.6482 25.134 60.4505 26.7156 59.8244C28.2973 59.3631 29.7471 57.7156 31.5923 56.9907ZM31.7571 56.9907C31.131 57.9792 30.6038 58.6712 29.9448 59.4949C29.2858 60.2528 28.429 61.0436 27.3746 61.472C26.3202 61.9003 25.1999 62.0651 23.9807 61.8015C22.7615 61.6038 21.6082 60.3846 21.7071 59.1325C21.7071 57.9133 22.3661 56.9577 23.124 56.2658C23.8818 55.5408 24.8374 54.9477 25.9577 54.7171C28.2313 54.3876 30.2743 55.3761 31.7241 56.9577L31.7571 56.9907Z" fill="#2B2626"/>
<path d="M31.6582 56.9577C31.0651 58.4405 30.3731 59.7915 29.9448 61.1425C29.6811 61.8015 29.3846 62.5923 29.5494 63.2843C29.7141 64.0092 30.5049 64.3387 31.131 64.141C32.4161 63.6797 32.9762 62.4605 32.8774 61.1754C32.9433 59.8574 32.1854 58.4735 31.6582 56.9577ZM31.6582 56.793C33.1739 57.7156 34.3931 59.0995 34.6238 61.0766C34.8874 62.9548 33.2728 65.3272 31.1969 65.0636C30.2084 64.9977 29.3517 64.3387 29.0551 63.482C28.7256 62.6582 28.5608 61.7685 28.6267 60.8789C28.8904 59.0666 30.0436 57.6167 31.6912 56.8259L31.6582 56.793Z" fill="#2B2626"/>
<path d="M31.9218 56.793C33.4375 57.8145 34.9203 58.6382 36.469 59.3302C37.1939 59.7256 38.0506 60.0881 38.8744 59.8904C39.6981 59.6927 40.3242 58.8689 40.1924 58.111C39.9288 56.5294 38.4131 55.8374 36.8314 55.7715C35.2827 55.5738 33.5364 56.101 31.8888 56.793H31.9218ZM31.757 56.793C32.8773 55.0466 34.8214 54.0251 36.9632 54.0581C38.0177 54.091 39.105 54.4535 39.9617 55.1784C40.8514 55.8704 41.3457 57.1225 41.115 58.2099C40.9173 59.3631 39.9947 60.0881 39.0721 60.4176C38.1495 60.78 37.0291 60.8789 36.0406 60.6482C34.1295 60.121 32.449 58.7371 31.757 56.793Z" fill="#2B2626"/>
<path d="M32.2843 55.8374C33.3387 55.3761 33.9648 54.816 34.525 54.4864C35.0851 54.2887 35.843 53.7615 36.4691 53.3991C37.1281 53.0366 37.9189 52.6082 38.2484 51.9163C38.6109 51.2243 38.2484 50.4006 37.5894 50.0711C36.2713 49.3791 35.151 50.2358 34.4591 51.455C34.0966 52.081 33.866 52.9048 33.5364 53.5968C33.2399 54.3217 32.7456 54.816 32.2843 55.8374ZM32.1525 55.9363C32.1525 55.3432 32.1525 54.1899 32.2843 53.2673C32.482 52.3776 32.482 51.4879 32.9104 50.5983C33.3387 49.7086 34.1625 48.9178 35.2169 48.5553C36.2714 48.1599 37.5564 48.5553 38.1825 49.3461C38.8744 50.071 39.1051 51.1914 38.7427 52.081C38.4461 52.9707 37.9518 53.7945 37.2928 54.4535C36.5679 55.0796 35.8759 55.5079 34.7556 55.7056C33.7012 55.9033 32.7127 55.8704 32.1196 55.9033L32.1525 55.9363Z" fill="#2B2626"/>
<path d="M23.849 26.5442C25.2502 26.5442 26.3862 25.4673 26.3862 24.1389C26.3862 22.8104 25.2502 21.7335 23.849 21.7335C22.4477 21.7335 21.3118 22.8104 21.3118 24.1389C21.3118 25.4673 22.4477 26.5442 23.849 26.5442Z" fill="#2B2626"/>
<path d="M49.6493 40.746C50.3772 40.746 50.9673 40.1411 50.9673 39.395C50.9673 38.6489 50.3772 38.044 49.6493 38.044C48.9213 38.044 48.3312 38.6489 48.3312 39.395C48.3312 40.1411 48.9213 40.746 49.6493 40.746Z" fill="#2B2626"/>
<path d="M31.6912 57.7156C32.5465 57.7156 33.2399 57.0812 33.2399 56.2987C33.2399 55.5162 32.5465 54.8818 31.6912 54.8818C30.8359 54.8818 30.1425 55.5162 30.1425 56.2987C30.1425 57.0812 30.8359 57.7156 31.6912 57.7156Z" fill="#2B2626"/>
<path d="M24.5739 25.2592C28.6268 30.5313 31.7242 36.5283 33.866 42.8548C35.7771 49.2473 37.0622 55.7386 38.2814 62.2957C40.555 75.3772 39.4346 89.2824 34.3602 101.573L34.1955 101.507C37.3258 88.6563 38.4791 75.5419 37.3587 62.3946C36.8974 55.8045 35.0851 49.3791 32.5479 43.3161C30.2084 37.1873 27.5065 31.2233 24.4091 25.358L24.5409 25.2592H24.5739Z" fill="#2B2626"/>
<path d="M38.0836 83.6478C37.8529 81.9673 37.4905 80.188 36.7985 78.6722C36.1395 77.1236 35.1839 75.7067 34.0636 74.4545C32.9762 73.1695 31.6253 72.0162 30.0436 71.2913C28.462 70.5334 26.5179 70.3357 25.2328 68.6882L25.9907 68.3257C26.7485 70.0391 27.4735 71.7526 28.0995 73.499C28.7585 75.2453 29.3846 76.9917 30.0766 78.6063C30.7685 80.188 31.7241 81.6707 33.108 82.6263C34.459 83.5819 36.3701 83.8784 38.1165 83.6807L38.0836 83.6478ZM38.2154 83.7466C36.436 84.5704 34.2942 84.6692 32.449 83.7466C30.6038 82.7911 29.2857 81.1106 28.462 79.3312C27.6382 77.5519 27.1769 75.7396 26.6167 73.9932C26.0566 72.2139 25.5953 70.4016 25.1339 68.6223L24.3102 65.2943L25.8918 68.2598C26.6826 69.7096 28.5938 70.2368 30.2413 70.797C31.9548 71.3901 33.6682 72.2139 35.0521 73.499C36.436 74.784 37.4246 76.4645 37.9847 78.2439C38.5119 80.0562 38.6767 81.9014 38.2154 83.7796V83.7466Z" fill="#2B2626"/>
<path d="M41.214 63.0536C45.1022 62.5594 48.5949 61.0107 51.5275 58.7041C53.0433 57.6168 54.3613 56.1999 55.4487 54.5853C56.5361 52.9707 57.5246 51.2243 59.1062 49.8734L59.4357 50.6971C57.5575 51.0596 55.6793 51.4879 53.9 52.0152C52.1207 52.5753 50.3413 53.3002 48.8585 54.2558C47.3758 55.2443 46.0248 56.5953 44.8386 58.0451C43.6523 59.495 42.532 61.0766 41.7082 62.79H41.5435C41.873 60.78 42.7627 58.9677 43.7841 57.2873C44.8715 55.6068 46.1236 54.0251 47.8371 52.806C49.6164 51.6197 51.4946 51.0266 53.4387 50.5324C55.3828 50.0711 57.3598 49.8404 59.3039 49.8074H60.9844L59.6005 50.6312C58.0188 51.6197 56.8655 53.2343 55.8441 54.9148C54.8556 56.5953 53.867 58.3746 52.3513 59.7915C49.3528 62.5594 45.0692 63.9103 41.1481 63.2843V63.1195L41.214 63.0536Z" fill="#2B2626"/>
<path d="M46.8156 44.8319C46.2554 47.3691 45.5634 49.8074 44.8385 52.2458C44.1136 54.6841 43.2239 57.0566 42.6638 59.5279L40.7526 66.9088C40.0936 69.3801 39.4346 71.8514 38.6108 74.2898C38.9733 69.1495 39.7971 64.108 41.0821 59.0995C41.6753 56.5953 42.6308 54.1899 43.6523 51.8174C44.6408 49.445 45.6623 47.0725 46.8156 44.7989V44.8319Z" fill="#2B2626"/>
<path d="M40.3243 62.5593C41.9389 60.7471 43.9159 59.429 45.893 58.3087L51.8241 54.8818L46.3543 59.0007C44.542 60.3516 42.8615 61.8344 41.6423 63.6138L40.3572 62.5923L40.3243 62.5593Z" fill="#2B2626"/>
<path d="M36.8645 83.8455C36.3043 81.9014 35.7441 80.0232 34.6238 78.4416C33.5694 76.8599 31.4605 75.9044 30.6038 73.9932C31.6912 75.7726 33.7671 76.2998 35.2499 77.9144C36.7326 79.463 37.5894 81.4401 38.4131 83.2853L36.8645 83.8455Z" fill="#2B2626"/>
<defs>
<filter id="filter0_f_1_1681" x="0.437432" y="0.327531" width="49.033" height="49.033" filterUnits="userSpaceOnUse" color-interpolation-filters="sRGB">
<feFlood flood-opacity="0" result="BackgroundImageFix"/>
<feBlend mode="normal" in="SourceGraphic" in2="BackgroundImageFix" result="shape"/>
<feGaussianBlur stdDeviation="4.26374" result="effect1_foregroundBlur_1_1681"/>
</filter>
<filter id="filter1_f_1_1681" x="32.4155" y="21.6462" width="36.2418" height="36.2418" filterUnits="userSpaceOnUse" color-interpolation-filters="sRGB">
<feFlood flood-opacity="0" result="BackgroundImageFix"/>
<feBlend mode="normal" in="SourceGraphic" in2="BackgroundImageFix" result="shape"/>
<feGaussianBlur stdDeviation="4.26374" result="effect1_foregroundBlur_1_1681"/>
</filter>
<filter id="filter2_f_1_1681" x="13.2286" y="38.7011" width="34.1099" height="34.1099" filterUnits="userSpaceOnUse" color-interpolation-filters="sRGB">
<feFlood flood-opacity="0" result="BackgroundImageFix"/>
<feBlend mode="normal" in="SourceGraphic" in2="BackgroundImageFix" result="shape"/>
<feGaussianBlur stdDeviation="4.26374" result="effect1_foregroundBlur_1_1681"/>
</filter>
</defs>
</svg>
