<svg width="130" height="173" viewBox="0 0 130 173" fill="none" xmlns="http://www.w3.org/2000/svg">
<g filter="url(#filter0_f_1_2113)">
<circle cx="92.2951" cy="59.1686" r="22.0843" fill="#8D9CFE"/>
</g>
<g filter="url(#filter1_f_1_2113)">
<circle cx="72.0512" cy="27.8825" r="12.8825" fill="#8D9CFE"/>
</g>
<g filter="url(#filter2_f_1_2113)">
<circle cx="31.5632" cy="86.774" r="16.5632" fill="#8D9CFE"/>
</g>
<path d="M20.7386 81.3495C60.8953 83.2618 41.1211 114.335 27.6052 96.2997C24.7369 91.128 25.128 85.6955 20.7386 81.3495ZM20.9559 81.4365C25.9103 84.0006 26.736 90.9541 29.474 95.1262C33.6461 102.688 46.2929 100.472 42.2946 90.9107C38.079 84.044 28.2571 82.8272 20.9993 81.4365H20.9559Z" fill="#494444"/>
<path d="M25.3453 87.7816L16.2188 88.7812L16.5664 87.912C22.3466 93.1271 31.56 104.47 40.0781 99.6461L40.2519 99.7765C38.7743 101.906 35.8191 102.819 33.2115 102.427C25.2584 100.776 20.3474 93.2575 15.1323 87.6947C15.393 87.6947 24.8238 87.5208 25.3453 87.4774V87.6947V87.7816Z" fill="#494444"/>
<path d="M30.2562 83.1748C27.6921 81.958 29.0394 79.4373 29.952 77.612C30.9081 75.3521 31.2558 72.7011 31.9077 70.3108C34.5153 75.3956 37.7313 80.2196 41.5557 84.4352C43.2072 86.3039 45.3367 88.39 45.9452 91.4322C46.7709 94.4309 44.5545 97.1689 42.1642 98.5596L42.0338 98.3857C46.684 93.5182 43.6418 90.1284 39.9043 85.8259C36.6448 81.5668 33.8634 77.0036 31.6035 72.1796L32.69 72.0492C32.0381 75.0044 30.6039 77.9597 29.2132 80.5673C28.909 81.4365 29.5609 82.4795 30.3432 82.9576L30.2562 83.1748Z" fill="#494444"/>
<path d="M44.8152 95.5609C50.2042 99.6461 42.7292 106.513 39.9478 100.081L40.0781 99.9068C41.9034 100.255 43.0768 100.733 44.5979 100.168C45.7713 99.4288 45.7713 97.2123 44.5979 95.6913L44.7718 95.5609H44.8152Z" fill="#494444"/>
<path d="M45.9452 100.602C49.8566 103.601 53.7679 106.904 56.3755 111.206C56.9839 112.249 57.6358 115.726 56.4624 116.335C55.5498 113.119 53.5072 111.076 51.9861 108.251C50.3346 105.6 47.4228 103.036 45.9886 100.602H45.9452Z" fill="#494444"/>
<path d="M56.0278 187C55.9409 167.704 55.7236 119.246 55.6801 100.602C55.7671 91.6495 54.7675 79.785 53.5941 72.4403C51.9426 69.7893 50.2911 67.0513 49.2481 63.9222C45.9017 54.8392 52.4207 45.278 49.422 36.3253L46.0756 27.3726L51.1603 35.4561C59.3308 47.0164 53.2464 61.0539 54.8544 73.7876C51.6819 62.0534 57.8531 47.4075 49.5523 36.4992L51.2907 35.63C53.7245 41.8447 51.508 48.3637 50.7257 54.4915C49.5523 60.88 52.3772 66.356 55.5498 71.7015C58.4181 88.39 57.0274 112.38 57.0709 129.372C56.8536 129.329 56.7232 187.435 56.0713 186.957L56.0278 187Z" fill="#494444"/>
<path d="M55.8974 84.5221C55.5932 81.0453 53.2029 78.1335 51.1603 75.2652C46.9447 65.2695 39.4697 57.7944 30.9081 51.3189C30.8647 51.3189 32.1685 50.1021 32.125 50.1021C36.1667 55.9691 40.252 62.01 43.1638 68.4855C45.2498 72.8749 47.4228 77.134 51.508 79.785C53.0725 80.8715 54.1156 84.131 55.8974 84.5221ZM56.0713 84.609C54.9848 85.0871 54.3329 83.9571 53.6375 83.3922C53.0291 82.7837 51.5515 81.1323 50.8996 80.6977C42.9899 76.5255 40.8604 67.0948 36.1233 60.2282C33.4722 56.0126 30.8212 51.2755 28.344 46.9295C37.9051 54.5784 47.5097 63.1834 51.6818 74.9175C53.5506 77.8293 55.9843 80.828 56.0713 84.609Z" fill="#494444"/>
<path d="M25.6061 82.0883C24.563 81.3061 24.563 79.6111 24.7803 78.4812C24.8672 77.047 24.6065 75.3086 24.4761 73.7441L25.9537 74.0483C27.779 74.396 29.2132 74.961 30.9081 75.9171C30.6908 76.6994 28.7352 76.6994 27.9963 76.6994C26.9968 76.6994 26.0841 76.3517 25.2149 75.8736L26.5622 75.0044C26.3449 76.6994 25.9972 78.742 25.3888 80.35C25.1715 81.1322 25.9972 81.958 25.6061 82.0883Z" fill="#494444"/>
<path d="M108.614 55.1434C103.138 60.7497 97.4014 66.5733 89.5352 68.9201C81.9732 71.5711 70.8476 68.7462 70.3695 59.3589C69.4134 50.3193 79.5395 43.7135 87.7534 46.1907C91.7082 46.8426 94.7504 50.4063 98.0968 51.797C101.269 52.7531 107.441 50.4497 108.614 55.1868V55.1434ZM108.397 55.0999C106.311 51.0147 101.356 54.1438 97.7056 53.2311C95.4457 52.7965 93.8812 51.232 92.3166 50.3193C87.7099 47.451 81.3648 46.9295 76.845 50.1021C70.2391 53.97 70.4999 64.9218 78.0619 67.5294C89.6656 71.745 100.487 62.7488 108.353 55.0999H108.397Z" fill="#494444"/>
<path d="M100.226 52.7096C102.399 49.9717 104.094 46.9295 105.224 43.7135L105.876 44.4523C101.052 45.6691 96.0107 45.6692 91.2301 46.1472C86.4061 46.321 81.4517 47.3206 77.0623 48.494C80.8867 45.1911 86.2323 44.0611 91.1432 43.9742C96.4453 43.9742 101.66 44.235 106.745 43.1485C105.181 46.4514 103.008 50.7974 100.27 52.7096H100.226Z" fill="#494444"/>
<path d="M97.4883 64.0526C101.356 67.1382 103.312 72.4838 102.312 77.5251C100.27 75.8302 98.1402 74.0049 95.8803 72.8315C91.7951 70.6585 87.1449 71.5277 82.6251 70.5281C80.7563 70.137 76.8884 68.9201 76.3669 67.1817C80.539 69.3982 85.0588 68.5724 89.7959 69.0939C94.6634 69.3982 98.9659 72.5273 102.269 75.8736L101.226 76.2648C102.225 71.7015 100.139 67.4859 97.5317 64.1395L97.4883 64.0526Z" fill="#494444"/>
<path d="M106.224 56.7514C107.701 57.8813 111.091 59.5328 108.831 62.01C106.311 64.183 103.703 67.399 100.313 67.4859C101.965 64.3568 105.05 62.7923 107.875 60.967C109.483 59.5328 107.006 58.229 106.05 56.8818L106.224 56.7514Z" fill="#494444"/>
<path d="M106.311 63.4442C107.832 65.2695 110.179 70.7889 107.397 72.4838C105.398 73.1357 103.964 73.0053 101.965 72.4838C102.095 71.6146 104.398 71.0496 105.137 70.7454C105.615 70.615 106.441 70.4846 106.615 70.4846C106.615 70.5716 106.789 70.5716 106.919 70.0066C107.658 66.834 106.05 64.183 106.354 63.4876L106.311 63.4442Z" fill="#494444"/>
<path d="M54.3329 71.3538C53.4203 61.3146 55.4629 46.9729 65.589 42.5401C58.5485 50.667 54.811 61.0104 54.3329 71.3538Z" fill="#494444"/>
<path d="M70.4129 38.5418C69.8914 40.8451 67.6749 44.3654 64.8501 42.9312C61.9383 40.932 62.9378 36.8034 65.502 35.8907L65.6758 36.0211C65.1977 37.9768 65.0239 39.9759 65.8931 41.497C67.2404 42.4531 69.6306 39.8021 70.2825 38.4549L70.4998 38.5418H70.4129Z" fill="#494444"/>
<path d="M82.5382 21.0275C79.4526 23.5482 62.9813 33.2397 67.2404 37.5857C68.5876 38.5852 70.5433 37.9768 71.8037 36.6296C75.6281 31.3709 78.453 26.9815 82.5382 20.9841V21.0275ZM82.6686 20.8537C79.496 25.7212 75.237 44.3654 66.1105 38.9329C59.9826 32.6313 78.1053 23.5482 82.6686 20.8537Z" fill="#494444"/>
<path d="M77.6273 23.9393L79.4526 19.2892L80.0176 19.8107C73.3248 23.1571 66.5451 28.8937 65.9366 36.673L65.7193 36.7599C64.5025 34.9346 64.9371 32.414 65.7193 30.5452C68.0662 24.1132 74.9328 20.8972 80.7564 18.6807C80.4522 19.2457 78.2357 23.3744 77.888 24.0263L77.6707 23.9393H77.6273Z" fill="#494444"/>
<path d="M72.2817 63.3138C65.2847 66.7036 61.1126 55.9257 67.2839 52.275C68.6746 51.3624 72.3686 50.8843 73.1074 52.2316C68.2834 52.6227 63.329 57.9683 67.4142 62.1404C68.5876 63.2703 70.4999 63.7484 72.1948 63.14L72.2817 63.3573V63.3138Z" fill="#494444"/>
<path d="M65.1109 57.8813C58.4181 62.3576 57.2881 70.0065 54.9413 76.6559C52.4207 69.3112 58.7658 60.3585 65.1109 57.8813Z" fill="#494444"/>
<path d="M56.8535 104.47C55.4194 89.6069 63.5029 76.2213 71.4125 64.4003C73.4551 78.9158 69.3699 95.6478 56.8535 104.47ZM56.9404 104.253C66.2408 94.4309 70.6302 80.4369 69.8914 66.9644L71.456 67.399C63.7202 78.177 56.5493 90.6065 56.897 104.253H56.9404Z" fill="#494444"/>
<path d="M55.8974 152.232C55.2021 127.069 66.1105 102.08 84.8416 85.2609L82.0602 90.3457C76.1496 101.602 78.2357 115.292 73.4986 127.113C69.1961 139.194 62.1556 149.842 56.419 161.228C57.9401 155.579 61.5907 149.451 64.0679 143.801C69.7611 132.458 74.194 120.811 75.3674 108.077C76.28 101.819 77.3665 95.3001 80.626 89.5634L81.9298 90.563C65.2413 106.382 56.5059 129.937 55.9409 152.276L55.8974 152.232Z" fill="#494444"/>
<path d="M56.1582 155.796C56.0278 147.756 52.1599 140.542 49.1177 133.284C45.7713 126.33 45.4671 117.508 39.8608 111.902L41.1211 111.25C43.2507 120.941 41.5992 131.415 43.6418 140.889C44.7718 145.887 48.5093 148.886 51.7688 152.71C55.1586 156.839 56.4189 162.098 56.6797 167.095H55.8105C56.0278 163.358 56.0713 159.577 56.2017 155.796H56.1582ZM56.3755 155.796C56.4624 159.577 56.4624 163.358 56.6362 167.139H55.767C55.1152 162.271 53.3333 157.534 50.2042 154.014C44.4675 149.016 39.9477 141.802 40.5996 133.849C40.5996 126.635 40.7735 118.594 39.6 111.467L39.2524 109.207C46.3363 115.292 46.6405 124.896 49.8565 132.936C52.5945 140.324 56.1147 147.712 56.332 155.752L56.3755 155.796Z" fill="#494444"/>
<defs>
<filter id="filter0_f_1_2113" x="55.4879" y="22.3614" width="73.6144" height="73.6144" filterUnits="userSpaceOnUse" color-interpolation-filters="sRGB">
<feFlood flood-opacity="0" result="BackgroundImageFix"/>
<feBlend mode="normal" in="SourceGraphic" in2="BackgroundImageFix" result="shape"/>
<feGaussianBlur stdDeviation="7.36144" result="effect1_foregroundBlur_1_2113"/>
</filter>
<filter id="filter1_f_1_2113" x="44.4458" y="0.277126" width="55.2108" height="55.2108" filterUnits="userSpaceOnUse" color-interpolation-filters="sRGB">
<feFlood flood-opacity="0" result="BackgroundImageFix"/>
<feBlend mode="normal" in="SourceGraphic" in2="BackgroundImageFix" result="shape"/>
<feGaussianBlur stdDeviation="7.36144" result="effect1_foregroundBlur_1_2113"/>
</filter>
<filter id="filter2_f_1_2113" x="0.277126" y="55.4879" width="62.5722" height="62.5722" filterUnits="userSpaceOnUse" color-interpolation-filters="sRGB">
<feFlood flood-opacity="0" result="BackgroundImageFix"/>
<feBlend mode="normal" in="SourceGraphic" in2="BackgroundImageFix" result="shape"/>
<feGaussianBlur stdDeviation="7.36144" result="effect1_foregroundBlur_1_2113"/>
</filter>
</defs>
</svg>
