<svg width="665" height="466" viewBox="0 0 665 466" fill="none" xmlns="http://www.w3.org/2000/svg">
<path d="M610 375C615.66 394.37 623.583 439.288 610 464" stroke="black" stroke-width="4" stroke-linecap="round"/>
<path d="M580 424.5C596.58 420.296 636.391 412.65 663 415.701" stroke="black" stroke-width="4" stroke-linecap="round"/>
<path d="M635 378.5C626.1 399.983 604.74 444.658 590.5 451.5" stroke="black" stroke-width="4" stroke-linecap="round"/>
<path d="M588.5 394C599.1 399.927 622.439 416.625 631 436" stroke="black" stroke-width="4" stroke-linecap="round"/>
<path d="M30.438 2.44434C28.8797 18.1445 21.0106 49.5447 2 49.5447" stroke="black" stroke-width="4" stroke-linecap="round"/>
<path d="M30.438 83.7592C32.2153 71.0213 41.1911 45.5456 62.875 45.5456" stroke="black" stroke-width="4" stroke-linecap="round"/>
<path d="M30.438 2C32.2153 16.5152 41.1911 45.5456 62.875 45.5456" stroke="black" stroke-width="4" stroke-linecap="round"/>
<path d="M30.438 83.7592C28.8797 72.3543 21.0106 49.5447 2 49.5447" stroke="black" stroke-width="4" stroke-linecap="round"/>
</svg>
