<svg width="168" height="255" viewBox="0 0 168 255" fill="none" xmlns="http://www.w3.org/2000/svg">
<g filter="url(#filter0_f_1_2069)">
<circle cx="59.7619" cy="47.8413" r="23.8413" fill="#DDBDFF"/>
</g>
<g filter="url(#filter1_f_1_2069)">
<circle cx="107.444" cy="65.7222" r="23.8413" fill="#DDBDFF"/>
</g>
<g filter="url(#filter2_f_1_2069)">
<circle cx="128.306" cy="98.504" r="14.9008" fill="#DDBDFF"/>
</g>
<g filter="url(#filter3_f_1_2069)">
<circle cx="47.8412" cy="149.167" r="23.8413" fill="#DDBDFF"/>
</g>
<path d="M112.046 48.3374C117.947 47.1453 124.801 47.8605 130.106 51.7943C131.357 52.8076 132.609 53.9401 133.563 55.3706C134.457 56.801 135.172 58.7679 134.576 60.6752C134.04 62.5229 132.609 63.9534 130.881 64.3706C129.152 64.7282 127.364 64.1918 126.351 62.9998C129.212 64.4302 132.251 62.5229 132.371 60.1984C132.609 57.9931 130.523 55.8474 128.377 54.1785C123.907 50.7215 118.126 49.4698 112.106 48.3374H112.046Z" fill="#494444"/>
<path d="M112.106 52.6287C117.529 54.7745 122.536 57.993 126.947 62.0461C129.152 64.0726 131.059 66.6951 132.073 69.7349C132.55 71.2846 132.848 72.8938 132.728 74.5627C132.609 76.2316 131.894 78.1985 130.344 79.3906C127.126 81.7747 122.894 80.7019 120.51 78.4966C117.947 76.3508 116.695 73.6091 115.443 70.9269C112.642 65.6818 110.675 60.258 108.589 54.8341C110.139 57.2778 111.569 59.8408 113.059 62.3441C114.43 64.907 115.92 67.4104 117.41 69.7945L119.616 73.4303C120.45 74.5628 121.344 75.576 122.298 76.3508C124.205 77.9601 126.887 78.3178 128.556 77.0661C130.106 75.9336 130.225 73.0131 129.45 70.5693C128.735 68.0064 127.185 65.7415 125.397 63.6554C121.583 59.4831 117.053 55.9069 112.165 52.6287H112.106Z" fill="#494444"/>
<path d="M118.364 73.9071C119.496 78.2581 119.258 83.3244 115.861 87.3178C114.192 89.2847 110.735 90.1192 108.231 88.6887C105.728 87.437 104.298 84.9337 103.642 82.6092C102.45 77.8409 102.748 73.5495 102.569 68.96C102.569 64.5494 102.092 59.8407 103.88 55.5493C103.344 60.0196 104.357 64.3706 104.834 68.7812C105.132 70.9866 105.311 73.1918 105.549 75.3971C105.728 77.6025 105.907 79.8674 106.503 81.7747C107.337 85.6489 111.271 88.3907 114.311 85.6489C115.801 84.4568 116.755 82.49 117.351 80.4038C118.066 78.3773 118.304 76.172 118.304 73.9071H118.364Z" fill="#494444"/>
<path d="M104.476 80.9999C103.702 82.9072 102.748 84.7549 101.317 86.3642C99.8273 87.9138 97.5624 89.0463 95.1783 88.9271C92.6749 88.9867 90.2312 86.7218 89.6948 84.3376C89.0391 81.8939 89.6352 79.629 90.112 77.6621C92.2577 69.6753 95.9531 62.2845 100.483 55.5493C98.0392 63.3573 94.8803 70.7481 92.973 78.4369C91.7213 82.0727 91.9597 86.1258 95.3571 86.6622C98.8737 87.3774 101.973 84.1588 104.417 80.9999H104.476Z" fill="#494444"/>
<path d="M98.7545 59.7215C97.1452 64.4302 94.5226 68.7812 91.1252 72.5362C89.3968 74.3839 87.7279 76.2316 84.9861 77.4833C83.6152 78.0793 81.8868 78.2581 80.3967 77.6621C78.847 77.1853 77.3569 75.576 77.1781 73.8475C76.9397 70.4501 78.6086 68.1852 80.1583 66.0394C81.8271 64.0129 83.7941 62.2845 85.8206 60.854C89.9928 58.1122 94.2842 55.5493 98.6353 53.2248C94.9399 56.5626 91.0656 59.6023 87.3106 62.5825C85.5226 64.2514 83.7941 65.8607 82.4232 67.7084C81.1119 69.4965 79.9198 71.7614 80.1583 73.3707C80.1583 74.8011 82.2444 75.576 84.0325 74.8011C85.8802 74.1455 87.7279 72.3574 89.5756 70.8673C93.0922 67.6488 96.1319 63.7745 98.8141 59.6619L98.7545 59.7215Z" fill="#494444"/>
<path d="M85.8802 61.9865C83.5557 62.7017 80.6947 60.556 80.5159 57.6354C80.2179 54.7745 82.304 52.0923 84.7477 51.1387C87.1318 50.185 89.3372 49.887 91.7213 49.7678C94.0458 49.7082 96.3703 49.8274 98.5757 50.5427C96.3107 51.0791 94.165 51.4963 92.0193 52.0327C89.9332 52.6288 87.7279 53.1056 85.9398 53.8805C84.2113 54.5361 83.0788 55.9666 82.7808 57.6951C82.4828 59.3043 83.6153 61.45 85.8802 62.0461V61.9865Z" fill="#494444"/>
<path d="M105.521 55.0125C109.449 54.5893 112.415 52.2298 112.147 49.7425C111.879 47.2551 108.478 45.5818 104.551 46.0049C100.623 46.4281 97.6567 48.7876 97.9247 51.275C98.1928 53.7623 101.594 55.4357 105.521 55.0125Z" stroke="#494444" stroke-width="2.98016" stroke-miterlimit="10"/>
<path d="M62.9926 32.4233C67.9992 31.2312 73.7807 31.708 78.4298 34.9862C79.5622 35.8206 80.5755 36.7743 81.4695 38.026C82.2444 39.218 82.9596 41.0061 82.4232 42.675C81.8868 44.2843 80.5755 45.4764 79.0854 45.834C77.5953 46.0724 76.0456 45.5956 75.2112 44.5227C77.6549 45.5956 80.0987 43.9863 80.1583 42.1386C80.2775 40.4697 78.549 38.6816 76.7013 37.3703C72.9463 34.6286 68.1184 33.5557 62.9926 32.4233Z" fill="#494444"/>
<path d="M62.9926 35.9995C67.6416 37.6684 71.8734 40.2313 75.688 43.5095C77.5953 45.1783 79.2642 47.3241 80.2179 49.887C81.0523 52.2711 81.5291 55.8473 78.6682 58.2911C75.8668 60.258 72.2907 59.4235 70.1449 57.6354C67.88 55.8473 66.8072 53.5228 65.7343 51.3175C63.3502 46.9069 61.6813 42.4366 59.9528 37.7875C62.7541 41.781 65.0191 46.1916 67.7012 50.1254C69.0125 52.0923 70.1449 54.2976 71.8734 55.4301C73.4231 56.6818 75.6284 56.8606 76.8801 55.9069C78.0722 55.1321 78.1914 52.8076 77.5357 50.781C76.9397 48.6949 75.6284 46.8473 74.0787 45.1188C70.8602 41.7214 67.0456 38.6816 62.9926 35.9399V35.9995Z" fill="#494444"/>
<path d="M68.3568 53.5228C69.3701 57.099 69.2509 61.3905 66.3303 64.7282C64.8999 66.3971 61.9793 67.0528 59.774 65.9799C57.6283 65.0262 56.2574 62.8805 55.6614 60.9136C54.5885 56.8606 54.8865 53.344 54.7077 49.5294C54.7077 45.834 54.4097 41.9002 56.019 38.3836C55.6614 42.079 56.615 45.7148 57.0322 49.3506C57.6879 52.9268 57.5687 56.9202 58.5223 60.0196C59.2972 63.1189 62.3369 65.0858 64.8403 63.0593C66.0323 62.1653 66.8668 60.556 67.4628 58.8871C68.1184 57.2182 68.3568 55.4301 68.4165 53.5228H68.3568Z" fill="#494444"/>
<path d="M56.4958 59.3639C55.8998 60.9732 55.0653 62.5229 53.8733 63.8938C52.6216 65.2051 50.7143 66.1587 48.6878 66.1587C46.6017 66.2779 44.2772 64.5494 43.7407 62.4037C43.0851 60.3176 43.6215 58.291 43.9791 56.6818C45.8268 50.0062 49.0454 43.8671 53.0984 38.3836C51.1315 44.9399 48.509 51.0791 46.8997 57.4566C45.8864 60.556 46.1248 63.4766 48.8666 63.8938C51.6679 64.4898 54.3501 61.9865 56.4958 59.4235V59.3639Z" fill="#494444"/>
<path d="M51.6679 41.8406C50.3567 45.834 48.0918 49.4698 45.2308 52.6287C43.7407 54.1784 42.3102 55.7281 39.9857 56.801C38.7937 57.2778 37.3036 57.397 35.9923 56.9798C34.6214 56.6222 33.2506 55.1917 33.0717 53.5824C32.8929 50.5427 34.383 48.6353 35.6943 46.9068C37.1844 45.238 38.8533 43.8075 40.5818 42.6154C44.1579 40.4101 47.7937 38.324 51.5487 36.5359C48.4494 39.3969 45.2308 41.9002 42.0122 44.4035C40.5221 45.7744 39.0321 47.0857 37.8996 48.6353C36.7672 50.0658 35.8135 51.9731 35.9923 53.1056C35.9923 54.0592 37.542 54.6553 38.9725 54.1188C40.4625 53.642 42.0718 52.2115 43.6215 50.9599C46.6613 48.3373 49.2838 45.1783 51.6679 41.781V41.8406Z" fill="#494444"/>
<path d="M40.6414 43.6883C38.6745 44.4035 36.0519 42.675 35.8731 40.0525C35.5751 37.5492 37.6016 35.2246 39.6877 34.4498C41.7738 33.6749 43.6215 33.4365 45.648 33.3769C47.6149 33.3769 49.5818 33.5557 51.4891 34.2114L46.0057 35.6418C44.2772 36.1783 42.3699 36.5955 40.8798 37.1915C39.4493 37.728 38.5552 38.7412 38.1976 40.1121C37.8996 41.3637 38.7937 43.1518 40.6414 43.6883Z" fill="#494444"/>
<path d="M57.4174 37.9184C60.7584 37.5849 63.3025 35.6683 63.0998 33.6375C62.8971 31.6066 60.0243 30.2307 56.6833 30.5641C53.3423 30.8976 50.7982 32.8143 51.0009 34.8451C51.2036 36.8759 54.0763 38.2519 57.4174 37.9184Z" stroke="#494444" stroke-width="2.98016" stroke-miterlimit="10"/>
<path d="M57.0322 60.4964C63.2905 87.3774 71.4562 115.212 76.9993 142.272C85.2245 182.743 83.496 224.524 81.7675 265.829" stroke="#494444" stroke-width="2.98016" stroke-miterlimit="10"/>
<path d="M104.596 82.2515C101.258 103.113 102.509 122.901 99.3505 143.822C97.026 159.199 91.2445 173.981 82.4828 186.855" stroke="#494444" stroke-width="2.98016" stroke-miterlimit="10"/>
<path d="M55.1249 169.093C55.0057 177.557 57.8071 185.842 61.5621 193.412C65.3171 200.981 70.0257 208.074 74.1383 215.465C78.251 222.855 81.6483 230.842 82.4828 239.246" stroke="#494444" stroke-width="2.98016" stroke-miterlimit="10"/>
<path d="M69.4297 109.252C66.4495 106.212 63.7674 102.993 61.0256 99.7749C58.4627 96.4371 55.7209 93.2781 53.2772 89.7615C50.7739 86.3642 48.6878 82.788 45.8268 79.7482C42.9659 76.7084 39.4493 74.4435 35.8135 72.2978L36.8267 71.7614C36.8267 76.3508 39.1513 80.5827 41.9526 84.0993C44.754 87.7351 48.4494 90.6556 51.7871 94.1126C53.456 95.8411 55.1249 97.6292 56.6746 99.5961C58.1647 101.623 59.2971 103.828 60.37 105.914C61.5025 107.941 62.5157 110.027 64.1846 111.517C65.7939 113.007 67.88 114.199 70.2641 113.96V114.258C67.9396 114.974 65.1979 114.258 63.1713 112.768C61.0852 111.278 59.5355 109.192 58.2839 107.166C55.8401 102.993 53.0388 99.7153 49.6414 96.3775C46.244 93.1589 42.7274 89.7616 39.8665 85.7681C37.0055 81.7747 35.1578 76.7681 35.5751 71.7614L35.6943 70.5693L36.5883 71.2249C39.9857 73.7283 43.5023 76.0528 46.7209 78.9138C49.9394 81.7747 52.8004 84.9337 55.4229 88.2715C58.1051 91.5496 60.4296 95.0066 62.9329 98.404C65.3171 101.921 67.6416 105.378 69.7873 109.073L69.5489 109.252H69.4297Z" fill="#494444"/>
<path d="M73.7807 130.292C76.2244 127.312 77.7741 123.914 78.3105 120.338C78.9066 116.762 78.6086 113.007 78.847 109.192C79.0258 105.378 79.3238 101.503 79.0854 97.6888C78.9066 93.8742 78.4893 90.0596 78.0721 86.245L79.9198 87.0198C77.8337 89.1059 76.5224 91.8476 75.7476 94.7682C75.0324 97.6887 74.794 100.788 74.5555 103.888C74.1383 110.265 73.6019 116.643 72.4694 123.02H72.1714C71.5158 116.583 71.3966 110.205 71.4562 103.768C71.4562 100.55 71.8138 97.1523 72.8867 93.9338C73.8999 90.7152 75.688 87.5562 78.4298 85.3509L80.3967 83.8012L80.2774 86.1257C80.0986 89.9404 79.9198 93.8146 79.9794 97.6292C79.9794 101.444 80.5755 105.258 80.9927 109.073C81.4695 112.828 81.5887 116.881 80.5755 120.815C79.5622 124.749 77.1781 128.325 73.8999 130.471L73.7211 130.232L73.7807 130.292Z" fill="#494444"/>
<path d="M98.9929 142.987C99.1121 138.577 97.2644 134.822 95.1783 131.126C94.165 129.278 93.2114 127.252 92.1981 125.225C91.3041 123.199 90.2312 121.232 89.3968 119.086L90.41 118.907C90.5888 121.709 91.1849 124.51 91.6021 127.252C92.0193 129.994 92.6153 132.676 93.4498 135.179C94.165 137.683 95.4763 140.245 96.43 142.868C97.5028 145.371 98.2777 148.649 97.3836 151.451H97.0856C96.6684 145.789 92.0193 141.914 90.41 136.073C89.5756 133.212 89.218 130.292 89.0988 127.431C88.9796 124.57 89.3372 121.709 89.3372 118.907V115.093L90.3504 118.669C90.9465 120.755 92.0193 122.662 93.3902 124.391C94.7015 126.119 96.2511 127.729 97.4432 129.696C98.6353 131.663 99.5293 133.808 99.9465 136.133C100.364 138.398 100.304 140.901 99.2313 142.987H98.9333H98.9929Z" fill="#494444"/>
<path d="M91.4829 170.345C94.9399 166.888 98.3968 163.55 100.543 159.259C101.794 157.173 102.986 154.967 104.894 153.06C106.741 151.153 108.947 149.782 111.212 148.709C115.741 146.563 120.331 145.073 124.861 143.226C129.391 141.378 133.861 139.411 138.212 137.265L141.371 135.716L138.808 138.219L126.47 150.378C122.298 154.312 118.245 158.424 114.251 162.537C110.258 166.53 106.92 171.299 102.211 175.233C97.2048 178.749 91.4233 180.12 85.9994 181.968L85.8802 181.67C91.006 178.928 96.4895 176.782 100.721 173.325C104.596 169.511 107.874 164.623 111.986 160.451C115.92 156.16 120.331 152.345 124.682 148.471C129.033 144.656 133.622 141.08 138.033 137.385L138.629 138.338C134.099 140.186 129.689 142.212 125.278 144.358L112.284 150.974C110.198 152.106 108.231 153.299 106.562 154.848C104.953 156.398 103.702 158.365 102.331 160.451C99.6485 164.742 95.5955 167.961 91.5425 170.583L91.3637 170.345H91.4829Z" fill="#494444"/>
<path d="M98.7545 175.352L111.629 179.286C105.788 182.027 99.6485 184.829 93.1518 184.769C90.41 184.769 87.6087 184.233 85.0457 183.16" stroke="#494444" stroke-width="2.98016" stroke-miterlimit="10"/>
<path d="M81.8272 230.604C82.6616 225.538 82.7808 220.471 82.304 215.465C81.8272 210.458 80.6947 205.511 79.5622 200.564C78.4894 195.617 77.0589 190.67 75.3304 185.782C73.5423 180.954 71.5754 176.246 69.5489 171.478L71.5158 171.239C70.9198 180.18 71.337 189.06 72.5291 197.882C73.7211 206.703 75.8072 215.345 78.549 223.988L78.251 224.107C73.8403 216.18 70.9794 207.359 69.4893 198.359C67.9992 189.358 68.0588 180.06 69.4893 171.06L70.2045 166.53L71.4562 170.822C72.8867 175.769 74.4364 180.656 76.1649 185.484C77.953 190.312 80.0391 195.021 81.7676 199.908C83.4365 204.796 84.4497 210.041 84.6285 215.286C84.8073 220.531 84.0921 225.836 82.1252 230.663H81.8272V230.604Z" fill="#494444"/>
<path d="M77.3569 222.14C74.4364 219.041 71.1582 216.418 67.6416 214.153C64.1846 211.769 60.37 209.981 56.6746 207.955C52.9196 206.047 49.2242 203.842 45.5288 201.637C41.893 199.431 38.2572 197.107 34.8598 194.425L35.6943 193.769C38.3764 198.299 41.6546 202.412 44.9328 206.465C48.3302 210.339 51.7275 214.809 55.7806 216.895C57.7475 217.968 60.4296 217.849 63.2906 219.1C66.1515 220.471 67.8204 222.855 69.5489 224.703C71.2774 226.67 73.0059 228.041 75.5688 228.756C77.953 229.412 81.2311 231.021 81.4099 234.061H81.1119C80.3967 231.438 77.5953 230.783 75.1516 230.306C72.4695 230.008 69.6085 228.339 67.7608 226.432C65.7939 224.524 64.0654 222.677 62.0389 221.842C60.072 220.948 57.211 221.067 54.4097 219.697C51.6679 218.445 49.701 216.299 47.9129 214.273C46.1844 212.246 44.4559 210.16 42.9063 208.014C39.7473 203.723 37.1248 199.014 34.681 194.306L33.3102 191.683L35.5155 193.65C38.6744 196.451 42.3102 198.657 46.1248 200.504C49.9394 202.352 53.9329 203.782 57.8071 205.69C61.6813 207.537 65.3767 209.802 68.8933 212.365C72.2906 215.047 75.4496 218.206 77.5953 221.961L77.3569 222.14Z" fill="#494444"/>
<path d="M83.0192 239.187C84.8669 236.147 87.0126 233.346 89.0988 230.425L92.4365 226.253C93.5094 224.882 94.8207 223.392 96.8472 222.498C98.8737 221.663 100.721 221.902 102.331 221.604C104 221.365 105.609 220.889 107.218 220.173C110.317 218.683 113.059 216.359 115.503 213.855L118.722 210.577L116.457 214.63C114.43 218.206 112.523 221.842 110.437 225.359C109.304 227.147 108.47 228.875 107.099 230.664C105.728 232.392 104.119 233.822 102.45 235.074C96.0723 240.14 89.3372 244.789 82.3636 249.081L82.1848 248.842C87.9663 243.061 94.1054 237.637 100.483 232.63C102.033 231.319 103.523 230.067 104.774 228.697C105.966 227.326 107.039 225.418 108.231 223.809C110.496 220.471 113 217.253 115.384 213.975L116.337 214.749C113.596 217.014 110.914 219.339 107.814 221.187C106.264 222.14 104.596 222.975 102.807 223.511C100.96 224.048 99.1717 224.226 97.92 224.822C95.5359 226.193 93.2114 229.412 90.8869 231.856C88.4431 234.359 85.9994 236.922 83.3172 239.306L83.0788 239.127L83.0192 239.187Z" fill="#494444"/>
<path d="M43.5619 135.179C46.8401 130.947 51.7275 127.61 57.5091 127.073C58.9395 127.014 60.37 127.014 61.8601 127.371C63.2906 127.729 65.0191 128.504 65.7939 130.172C66.5687 131.782 66.3899 133.629 65.3767 134.881C64.3634 136.073 62.8137 136.669 61.4429 136.431C64.125 135.656 65.0787 132.735 63.7674 131.365C62.6349 130.053 60.0124 129.874 57.6879 130.053C52.86 130.411 48.2706 132.735 43.5023 135.179H43.5619Z" fill="#494444"/>
<path d="M46.0056 137.802C50.7739 136.073 55.8998 135.179 61.0853 135.239C63.7078 135.239 66.4495 135.775 68.9529 137.027C70.2045 137.682 71.337 138.577 72.3503 139.769C73.3039 140.901 74.0192 142.689 73.6019 144.537C72.6483 148.053 69.1913 149.544 66.3899 149.603C63.4098 149.663 61.0257 148.649 58.6415 147.696C53.7541 145.908 49.3434 143.583 44.8136 141.259C49.7606 142.451 54.5885 144.298 59.2972 145.49L62.8137 146.504C64.0058 146.742 65.1383 146.861 66.2111 146.742C68.3568 146.742 70.3238 145.431 70.6814 143.822C71.0986 142.451 69.4893 140.543 67.582 139.471C65.6747 138.278 63.2906 137.802 60.9064 137.504C56.019 137.027 50.9527 137.265 45.946 137.802H46.0056Z" fill="#494444"/>
<path d="M62.2177 147.636C65.4363 149.663 68.3569 153.001 68.178 157.65C68.0588 159.974 66.0919 162.239 63.7078 162.716C61.3833 163.312 58.9992 162.597 57.2111 161.524C53.6349 159.199 51.4295 156.279 48.6878 153.537C46.1845 150.736 43.2043 147.994 42.0122 144.179C44.2176 147.279 47.4361 149.365 50.2971 151.868C53.2176 154.133 55.8998 157.173 58.7607 158.961C61.4429 160.809 65.3171 160.391 65.9727 157.232C66.3899 155.742 65.9727 153.954 65.1979 152.285C64.5422 150.557 63.4694 149.067 62.2177 147.577V147.636Z" fill="#494444"/>
<path d="M56.7938 159.736C57.3899 161.345 57.8071 163.073 57.7475 164.921C57.6283 166.769 56.6746 168.736 55.0653 169.987C53.5157 171.418 50.7143 171.537 48.8666 170.405C46.9593 169.332 45.8865 167.484 45.1116 165.934C41.9526 159.676 40.2837 152.881 39.6877 146.027C42.5487 152.345 44.6944 158.722 47.7341 164.623C49.0454 167.603 51.3103 169.511 53.7541 168.14C56.3766 166.828 56.8534 163.193 56.7342 159.736H56.7938Z" fill="#494444"/>
<path d="M41.3566 149.663C43.0255 153.537 43.7407 157.828 43.5619 162.12C43.4427 164.266 43.3235 166.411 42.1314 168.736C41.5354 169.868 40.4029 170.882 39.0917 171.358C37.84 171.895 35.9327 171.776 34.7406 170.762C32.4757 168.676 32.3565 166.173 32.1777 163.968C32.1777 161.703 32.5353 159.557 33.1314 157.471C34.5022 153.477 35.9327 149.484 37.6612 145.729C37.1248 149.961 36.2307 153.954 35.3963 157.948C35.1579 159.974 34.8598 161.941 35.0387 163.848C35.1579 165.636 35.6943 167.723 36.6479 168.438C37.3036 169.153 39.0321 168.617 39.8069 167.305C40.701 165.994 40.999 163.848 41.3566 161.941C42.0122 157.948 41.893 153.895 41.4162 149.722L41.3566 149.663Z" fill="#494444"/>
<path d="M32.7141 161.703C31.5817 163.729 28.3631 165.934 25.3829 163.55C22.8796 160.809 24.3101 157.232 25.5021 155.206C28.1843 150.855 31.5817 147.1 35.8731 144.477C33.2506 148.769 30.4492 152.643 28.0651 156.696C26.873 158.603 26.2174 160.689 27.0518 162.06C27.7671 163.371 30.7472 163.133 32.7141 161.762V161.703Z" fill="#494444"/>
<path d="M42.5806 143.164C45.094 140.792 45.9591 137.626 44.5129 136.094C43.0667 134.562 39.8569 135.244 37.3435 137.617C34.8301 139.989 33.9649 143.155 35.4111 144.687C36.8573 146.219 40.0672 145.537 42.5806 143.164Z" stroke="#494444" stroke-width="2.98016" stroke-miterlimit="10"/>
<path d="M134.218 90.0596C135.768 90.5364 137.02 91.2516 138.271 92.0265C139.583 92.8013 140.834 93.9934 141.55 95.7219C142.205 97.3908 142.205 99.5961 140.834 101.086C139.523 102.636 137.02 102.695 136.066 101.325C137.556 101.563 138.629 100.55 138.927 99.7749C139.225 98.8808 139.165 97.808 138.748 96.8543C138.093 94.8874 135.53 92.8609 134.218 90.1192V90.0596Z" fill="#494444"/>
<path d="M130.106 91.8477C132.728 93.8146 134.755 96.6755 136.006 99.8345C136.662 101.384 137.199 103.172 136.901 105.258C136.662 107.225 134.695 109.49 132.371 109.55C130.106 109.729 128.02 108.298 127.006 106.629C125.993 104.901 125.636 102.993 125.695 101.325C125.934 97.9868 126.708 94.7086 127.483 91.5497C127.9 94.8279 127.781 98.0464 127.96 101.146C128.258 104.126 129.987 106.808 132.132 106.57C134.159 106.57 134.755 103.53 133.801 100.55C133.086 97.5696 131.775 94.649 130.046 91.8477H130.106Z" fill="#494444"/>
<path d="M126.53 102.576C126.291 105.497 124.384 108.358 121.463 109.848C120.092 110.682 117.589 110.801 116.039 109.311C114.549 107.881 114.192 105.795 114.49 104.126C115.145 100.848 116.755 98.2252 118.781 96.0199C120.808 93.8146 123.073 91.9669 125.516 90.4172C123.907 92.8609 122.059 95.0662 120.569 97.3908C119.139 99.7153 117.828 102.219 117.41 104.543C117.172 105.676 117.41 106.689 118.006 107.344C118.483 108 119.377 108.06 120.569 107.762C122.894 107.046 125.099 105.08 126.47 102.576H126.53Z" fill="#494444"/>
<path d="M98.6352 147.755C101.794 140.126 106.562 133.51 111.808 127.133C114.847 123.378 118.245 119.861 121.106 115.868C123.967 111.874 126.232 107.404 126.768 102.576" stroke="#494444" stroke-width="2.98016" stroke-miterlimit="10"/>
<path d="M119.02 97.6888C118.066 98.1656 116.993 98.4636 115.92 98.8212C114.728 98.9404 113.417 98.702 112.284 97.6888C110.019 95.4835 111.092 91.9668 112.761 90.2979C116.039 86.9006 121.106 85.5297 125.218 87.139C121.046 87.9138 117.47 89.7019 114.967 92.3245C113.774 93.5165 113.417 95.0662 114.013 96.2583C114.311 96.8543 115.086 97.2715 115.98 97.4504C116.933 97.5696 117.947 97.5695 119.02 97.7483V97.6888Z" fill="#494444"/>
<path d="M133.45 90.9949C133.928 89.6626 132.432 87.9066 130.108 87.0727C127.784 86.2389 125.513 86.6429 125.035 87.9752C124.557 89.3075 126.053 91.0635 128.377 91.8974C130.701 92.7312 132.972 92.3272 133.45 90.9949Z" stroke="#494444" stroke-width="1.7881" stroke-miterlimit="10"/>
<defs>
<filter id="filter0_f_1_2069" x="12.0793" y="0.158724" width="95.3651" height="95.3651" filterUnits="userSpaceOnUse" color-interpolation-filters="sRGB">
<feFlood flood-opacity="0" result="BackgroundImageFix"/>
<feBlend mode="normal" in="SourceGraphic" in2="BackgroundImageFix" result="shape"/>
<feGaussianBlur stdDeviation="11.9206" result="effect1_foregroundBlur_1_2069"/>
</filter>
<filter id="filter1_f_1_2069" x="59.7619" y="18.0397" width="95.3651" height="95.3651" filterUnits="userSpaceOnUse" color-interpolation-filters="sRGB">
<feFlood flood-opacity="0" result="BackgroundImageFix"/>
<feBlend mode="normal" in="SourceGraphic" in2="BackgroundImageFix" result="shape"/>
<feGaussianBlur stdDeviation="11.9206" result="effect1_foregroundBlur_1_2069"/>
</filter>
<filter id="filter2_f_1_2069" x="89.5635" y="59.7619" width="77.4842" height="77.4842" filterUnits="userSpaceOnUse" color-interpolation-filters="sRGB">
<feFlood flood-opacity="0" result="BackgroundImageFix"/>
<feBlend mode="normal" in="SourceGraphic" in2="BackgroundImageFix" result="shape"/>
<feGaussianBlur stdDeviation="11.9206" result="effect1_foregroundBlur_1_2069"/>
</filter>
<filter id="filter3_f_1_2069" x="0.158678" y="101.484" width="95.3651" height="95.3651" filterUnits="userSpaceOnUse" color-interpolation-filters="sRGB">
<feFlood flood-opacity="0" result="BackgroundImageFix"/>
<feBlend mode="normal" in="SourceGraphic" in2="BackgroundImageFix" result="shape"/>
<feGaussianBlur stdDeviation="11.9206" result="effect1_foregroundBlur_1_2069"/>
</filter>
</defs>
</svg>
